<svg data-v-d3f97b9e="" xmlns="http://www.w3.org/2000/svg" viewBox="0 0 382 90"><!----><!----><!----><g data-v-d3f97b9e="" id="8397f7c9-452d-4b86-8440-44a7a02b1e1e" fill="#371213" transform="matrix(5.870841333886128,0,0,5.870841333886128,146.74578435899784,-8.424655309264303)"><path d="M5.39 14.21C7.34 14.21 8.15 13.52 8.64 13.17C9.11 12.84 9.23 13.05 9.37 12.91C9.49 12.78 9.46 12.67 9.37 12.56L8.36 11.38C8.25 11.24 8.09 11.23 7.97 11.35C7.78 11.54 8.11 11.65 7.70 12.05C7.38 12.38 6.75 12.75 5.39 12.75C3.53 12.75 2.07 11.05 2.07 9.04C2.07 6.97 3.50 5.45 5.50 5.45C6.62 5.45 7.24 5.64 7.70 6.05C7.98 6.30 7.90 6.54 8.05 6.62C8.26 6.73 8.37 6.61 8.50 6.41L9.09 5.50C9.23 5.28 9.37 5.03 9.20 4.90C9.00 4.75 8.74 5.08 8.40 4.83C7.88 4.44 7.07 4.02 5.50 4.02C2.34 4.02 0.42 6.27 0.42 9.04C0.42 11.83 2.48 14.21 5.39 14.21ZM15.30 14.20C18.16 14.20 19.25 12.56 19.40 12.15C19.45 12.04 19.45 11.94 19.45 11.84L19.45 10.26C19.45 9.56 19.80 9.81 19.80 9.52C19.80 9.28 19.57 9.28 19.39 9.28L17.98 9.28C17.70 9.28 17.54 9.30 17.54 9.53C17.54 9.83 17.92 9.55 17.92 10.36L17.92 11.34C17.92 11.52 17.91 11.56 17.85 11.68C17.60 12.17 16.60 12.84 15.32 12.84C13.54 12.84 11.91 11.47 11.91 9.11C11.91 6.79 13.55 5.40 15.30 5.40C16.79 5.40 17.33 5.74 17.93 6.15C18.55 6.57 18.31 6.80 18.49 6.93C18.66 7.06 18.82 6.89 18.96 6.66L19.57 5.74C19.67 5.59 19.82 5.35 19.66 5.24C19.40 5.07 19.31 5.36 18.79 5.05C18.58 4.93 17.47 3.99 15.30 3.99C12.18 3.99 10.29 6.26 10.29 9.11C10.29 11.79 12.07 14.20 15.30 14.20ZM26.32 14.03L29.72 7.41C30.23 6.51 30.34 5.56 30.28 5.12C30.21 4.52 30.52 4.77 30.52 4.40C30.52 4.24 30.35 4.20 30.13 4.20L28.38 4.20C28.21 4.20 28.04 4.20 28.04 4.42C28.04 4.79 28.52 4.59 28.60 5.24C28.66 5.63 28.66 6.08 28.35 6.68L26.25 10.71C26.17 10.85 26.05 10.88 25.91 10.65L23.03 5.17C22.72 4.59 23.23 4.79 23.23 4.47C23.23 4.20 23.07 4.20 22.74 4.20L20.93 4.20C20.83 4.20 20.64 4.23 20.64 4.45C20.64 4.73 20.97 4.65 21.25 5.18L25.84 14.01C25.94 14.20 26.24 14.20 26.32 14.03ZM35.91 14.21C37.86 14.21 38.67 13.52 39.16 13.17C39.63 12.84 39.75 13.05 39.89 12.91C40.01 12.78 39.98 12.67 39.89 12.56L38.88 11.38C38.77 11.24 38.61 11.23 38.49 11.35C38.30 11.54 38.63 11.65 38.22 12.05C37.90 12.38 37.27 12.75 35.91 12.75C34.05 12.75 32.59 11.05 32.59 9.04C32.59 6.97 34.02 5.45 36.02 5.45C37.14 5.45 37.76 5.64 38.22 6.05C38.50 6.30 38.42 6.54 38.57 6.62C38.78 6.73 38.89 6.61 39.02 6.41L39.61 5.50C39.75 5.28 39.89 5.03 39.72 4.90C39.52 4.75 39.26 5.08 38.92 4.83C38.40 4.44 37.59 4.02 36.02 4.02C32.86 4.02 30.94 6.27 30.94 9.04C30.94 11.83 33.00 14.21 35.91 14.21Z"></path></g><linearGradient data-v-d3f97b9e="" gradientTransform="rotate(25)" id="f8b8fad9-a311-4450-8fcf-0ab9b7ccc757" x1="0%" y1="0%" x2="100%" y2="0%"><stop data-v-d3f97b9e="" offset="0%" style="stop-color: rgb(233, 0, 127); stop-opacity: 1;"></stop><stop data-v-d3f97b9e="" offset="100%" style="stop-color: rgb(254, 161, 52); stop-opacity: 1;"></stop></linearGradient><g data-v-d3f97b9e="" id="495018a6-4184-4d24-ab56-f9e2befb8e5e" transform="matrix(1.2904122095419015,0,0,1.2904122095419015,0.39422839121567677,-15.645397809011314)" stroke="none" fill="url(#f8b8fad9-a311-4450-8fcf-0ab9b7ccc757)"><path d="M99.965 53.574a.86.86 0 0 0 .025-.053c.012-.025.024-.05.034-.076l.023-.062c.008-.023.017-.047.024-.071l.019-.073.015-.064.013-.084.007-.057c.003-.031.004-.062.005-.093l.002-.04-.001-.012c0-.03-.002-.06-.005-.09a1.091 1.091 0 0 0-.015-.127c-.004-.024-.007-.049-.012-.073l-.011-.043c-.008-.032-.015-.064-.025-.095l-.007-.02a1.817 1.817 0 0 0-.041-.111l-.02-.041c-.013-.028-.026-.057-.041-.084a1.269 1.269 0 0 0-.068-.111l-.004-.007a1.267 1.267 0 0 0-.083-.11l-.001-.001c-.023-.028-.048-.054-.073-.08l-.023-.024c-.019-.019-.04-.036-.06-.054l-.048-.043-.049-.037c-.023-.017-.046-.035-.07-.05l-.01-.007c-.012-.008-.024-.014-.037-.021a1.234 1.234 0 0 0-.209-.104l-.061-.023c-.024-.008-.047-.017-.072-.024a.923.923 0 0 0-.071-.018l-.066-.015a1.13 1.13 0 0 0-.081-.012c-.02-.003-.039-.006-.059-.007-.03-.003-.06-.004-.09-.005l-.043-.002H81.584l-3.441-8.907a1.453 1.453 0 0 0-2.742.089l-2.762 8.817h-4.69L63.59 40.454a1.45 1.45 0 0 0-2.46-.402l-3.984 4.711-9.05-16.9a1.456 1.456 0 0 0-1.167-.763 1.449 1.449 0 0 0-1.272.571l-9.232 12.177-6.418-11.985a1.456 1.456 0 0 0-1.167-.763 1.449 1.449 0 0 0-1.272.571l-1.253 1.653-3.368-15.625a1.453 1.453 0 0 0-2.803-.14l-5.689 17.63-3.044-4.976a1.453 1.453 0 0 0-2.616.295l-8.72 25.93-.003.011a.225.225 0 0 0-.008.024l-.015.057-.003.011c-.004.017-.01.035-.013.052l-.009.047a1.789 1.789 0 0 0-.015.1l-.001.01-.002.043a.907.907 0 0 0-.006.09v.019l.002.035c.001.029.001.058.003.086l.002.016.007.053.009.068.004.019c.004.022.01.043.015.064l.012.051.007.023.023.067.014.04a.306.306 0 0 0 .011.027l.029.064.017.038.014.028.032.056a1.49 1.49 0 0 0 .041.066c.01.016.022.031.033.046l.035.048.016.02.032.037.049.055a.1.1 0 0 0 .01.011l.005.005.03.028a1.618 1.618 0 0 0 .077.07l.03.023c.022.017.043.034.066.05l.057.037.06.036.02.012.053.026.052.025a.256.256 0 0 0 .024.011l.062.023.002.001.035.014a.164.164 0 0 1 .011.003l.023.008.053.014a1.072 1.072 0 0 0 .068.018c.021.005.043.008.064.011l.007.001.075.012.009.001.042.002c.031.002.061.005.092.005h27.302l1.921 8.913a1.453 1.453 0 0 0 2.598.546l2.844-3.927 2.437 10.121a1.454 1.454 0 0 0 2.746.236l3.704-8.564 5.59 19.563a1.453 1.453 0 0 0 2.597.42l7.576-11.107 3.222 6.672a1.454 1.454 0 0 0 2.529.157l8.948-13.852 6.612 13.695a1.454 1.454 0 0 0 2.529.157L99.898 53.69l.021-.036.046-.08zm-23.034-6.106l.22.57a.935.935 0 0 0-.327-.06l-.054.003.161-.513zm-1.154 3.682a.94.94 0 0 0 .456-1.454l.012-.04a.937.937 0 0 0 1.412-.307l.038.098a.939.939 0 0 0 .668 1.73l.105.272h-.718a.937.937 0 1 0-1.85 0h-.215l.092-.299zm-10.954.298H49.859l-.019-.049H64.803l.02.049zm-25.767-6.686l-.077-.144h.198l-.121.144zm25.375 5.698H49.468l-.159-.402h14.964l.158.402zm-3.358-5.841h1.042l.16.402h-1.542l.34-.402zm-1.134 1.341h2.708l.16.402h-3.208l.34-.402zm-1.134 1.341h4.374l.159.402h-4.874l.341-.402zm-2.083 1.478c.272.029.543-.021.783-.136h6.206l.189.476H48.937l-.189-.476h7.498c.147.071.308.118.476.136zm-1.298-1.075h-7.049l-.16-.402h6.993l.216.402zm-.718-1.342h-6.863l-.16-.402h6.807l.216.402zm-.718-1.341h-6.676l-.159-.402H53.774l.214.402zm-.719-1.341H46.78l-.16-.402h6.434l.215.402zm-.718-1.341h-6.303l-.159-.402h6.248l.214.402zm-.718-1.342h-6.117l-.159-.402h6.061l.215.402zm-5.229-9.765l.202.376h-.487l.285-.376zm-.998 1.315h1.702l.215.402h-2.222l.305-.402zm-1.017 1.342h3.437l.215.402h-3.957l.305-.402zm-1.017 1.341H48.744l.215.402h-5.693l.306-.402zm-1.017 1.341h6.907l.215.402H42.25l.305-.402zm-1.016 1.341h8.643l.215.402h-9.163l.305-.402zm-1.017 1.342H50.9l.215.402h-6.388a1.45 1.45 0 0 0-1.154 0h-3.356l.305-.402zm-1.017 1.341h3.076l-.34.402H39.2l.305-.402zm-1.017 1.341h2.958l-.34.402h-2.923l.305-.402zm.753 1.342h1.071l-.34.402h-1.495l-.215-.402h.979zM28.514 31.232l8.99 16.788a1.452 1.452 0 0 0 2.39.252l3.799-4.492 3.04 7.669H5.008L8.929 47.6l3.307 2.637a1.453 1.453 0 0 0 2.063-.258l14.215-18.747zm-7.443-11.084a.958.958 0 0 0 .235-.272l.019.087a.936.936 0 0 0-.288.293l.034-.108zm-10.66 10.668a.942.942 0 0 0 .216-.315l.079.129a.938.938 0 0 0-.312.235l.017-.049zM4.98 46.969a.936.936 0 0 0 .324-.965l.081-.24a.938.938 0 0 0 .598-1.775l.159-.472-.002.037a.938.938 0 1 0 .171-.539l.027-.081A.937.937 0 0 0 6.652 42l.086-.256a.938.938 0 0 0 .597-1.777l.146-.436a.94.94 0 1 0 .192-.57l.023-.068a.935.935 0 0 0 .302-.899l.091-.271a.94.94 0 0 0 .598-1.778l.137-.408a.938.938 0 1 0 .211-.628l.018-.055a.935.935 0 0 0 .289-.86l.098-.291a.938.938 0 0 0 .599-1.779l.128-.381a.938.938 0 0 0 1.513.676l.019.032a.938.938 0 0 0 .914 1.493l.235.385-.002.034c0 .377.222.701.542.85l.238.389c.167.273.414.477.699.591a.938.938 0 0 0 1.738-.526c.079-.114.142-.241.185-.377l.004-.014a.938.938 0 0 0 .574-1.78l.075-.232a.938.938 0 1 0 .313-.97l.339-1.052a.94.94 0 0 0 .576-1.784l.096-.296a.939.939 0 1 0 .27-.837l.015-.047a.938.938 0 0 0 .231-.716l.114-.354a.94.94 0 0 0 .577-1.787l.122-.379a.938.938 0 1 0 .216-.672l.388-1.201a.938.938 0 0 0 .575-1.784l.161-.5c-.001.021-.003.042-.003.064 0 .472.348.861.801.928l.176.818-.038-.002a.938.938 0 1 0 .421 1.778l.039.182a.936.936 0 0 0 .21.978l.008.037a.938.938 0 1 0 .206.959l.041.19a.938.938 0 0 0 .383 1.778l.176.819a.938.938 0 1 0 .369 1.713l.018.082a.936.936 0 0 0 .267 1.238l.032.129a.94.94 0 1 0-1.033 1.361l-.209.276a.938.938 0 1 0-.821 1.083l-.576.759a.94.94 0 1 0-.297.391l-.776 1.024a.94.94 0 0 0-.736.916l.003.051-.274.363a.938.938 0 0 0-.99 1.306l-.086.113a.938.938 0 0 0-1.108 1.462l-.016.021a.938.938 0 1 0-1.132 1.493l-.036.048a.938.938 0 1 0-1.067 1.407l-.155.204a.937.937 0 0 0-1.846.241c0 .519.42.939.939.939l.013-.001-.43.567a.94.94 0 0 0-1.824-.433l-.208-.165a.939.939 0 1 0-1.172-.934l-.429-.342c-.017-.014-.035-.026-.053-.038.026.002.052.004.078.004a.938.938 0 1 0-.639-.252l-.036-.006a.938.938 0 0 0-1.606.661l.003.054-.358.351-.047-.002a.94.94 0 0 0-.937.969l-.379.372-.023-.001a.938.938 0 0 0-.792.436l.035-.105zm-.182.614l-.036.036.04-.119a.967.967 0 0 0-.004.077v.006zM32.812 59.47l-.053-.245a.935.935 0 0 0 .336-.145l-.283.39zm3.27-4.269a.938.938 0 1 0-1.13 1.316l-.144.199a.939.939 0 1 0-.904 1.19l.044-.002-.485.67a.94.94 0 0 0-1.098-1.183l-.197-.914a.938.938 0 1 0-.316-1.463l-.006-.029a.936.936 0 0 0 .311-.629h.812a.938.938 0 0 0 1.87 0h.811c.027.352.248.65.556.787a.996.996 0 0 0-.124.058zm4.261 9.896l-.14-.579a.939.939 0 0 0 .351.091l-.211.488zM52.52 77.466l-.251-.88a.94.94 0 0 0 .865-.019l-.614.899zm6.195-9.083a.93.93 0 0 0-.182.267l-.541.793a.938.938 0 0 0-.838 1.228l-.117.172a.937.937 0 0 0-1.027 1.506l-.013.02a.938.938 0 1 0-1.047 1.534l-.074.109a.939.939 0 1 0-.905 1.326l-.359.527a.94.94 0 0 0-1.726-.619l-.019-.067a.937.937 0 0 0-.49-1.714l-.237-.828a.938.938 0 1 0-.454-1.59l-.007-.023a.94.94 0 0 0-.444-1.554l-.239-.836h.002A.938.938 0 1 0 49.5 66.9l-.025-.087a.937.937 0 0 0-.366-1.282l-.268-.939a.94.94 0 0 0-.184-1.86.93.93 0 0 0-.33.061l-.087-.304a.933.933 0 0 0-.224-.782l-.013-.044a.938.938 0 1 0-.257-.901l-.071-.247a.94.94 0 1 0-.513-1.793l-.261-.915a.94.94 0 1 0-.432-1.249 1.434 1.434 0 0 0-.072-.097.939.939 0 1 0-1.311-.53 1.44 1.44 0 0 0-.379.099c-.025-.002-.05-.004-.076-.004a.938.938 0 0 0-.896 1.221l-.083.193a.938.938 0 0 0-.745 1.723l-.074.171a.94.94 0 1 0-.507 1.173l-.383.884a.939.939 0 0 0-.682 1.577l-.009.022a.935.935 0 0 0-1.391.114l-.01-.04a.937.937 0 0 0-.398-1.654l-.198-.824.012.001a.938.938 0 1 0-.438-1.769l-.036-.151a.936.936 0 0 0-.258-1.074l-.015-.06a.938.938 0 1 0-.177-.732l-.073-.304a.939.939 0 1 0-1.108-1.418 1.22 1.22 0 0 0-.058-.014.939.939 0 0 0 .415-.71h.813a.938.938 0 0 0 1.87 0h.812a.938.938 0 0 0 1.87 0h.812a.938.938 0 0 0 1.87 0h.812a.94.94 0 0 0 1.694.48l.017.042a.938.938 0 0 0 .667 1.681l.372.939a.938.938 0 1 0 .427 1.076l.082.208a.94.94 0 0 0 .692 1.745l.097.244a.938.938 0 0 0 .694 1.132 1.46 1.46 0 0 0 .636.26.938.938 0 1 0 1.472-.592l.034-.028a.937.937 0 1 0 1.438-1.198l.017-.014a.936.936 0 0 0 1.147.112l.033.069a.939.939 0 0 0 .68 1.41l.415.86a.938.938 0 1 0 .589 1.221l.076.158a.938.938 0 1 0 .816 1.689l.057.119a.938.938 0 0 0 .627 1.298l.132.272-.574.845zm6.749 5.252L57.307 56.74a1.452 1.452 0 0 0-2.239-.484l-2.482 2.069-1.574-3.97H77.92l-12.456 19.28zm18.33-.373h-.422l-.194-.402h.876l-.26.402zm.867-1.341h-1.936l-.194-.402h2.39l-.26.402zm.866-1.342h-3.45l-.194-.402h3.904l-.26.402zm.867-1.341H81.43l-.194-.402h5.418l-.26.402zm.866-1.341h-6.478l-.194-.402h6.932l-.26.402zm.867-1.341H80.135l-.194-.402h8.446l-.26.402zm.866-1.342h-9.507l-.194-.402H89.253l-.26.402zm.867-1.341H78.84l-.194-.402H90.121l-.261.402zm.866-1.341H78.191l-.194-.402H90.986l-.26.402zm.867-1.342H77.544l-.194-.402H91.852l-.259.402zm.866-1.341h-14.63l.26-.402H92.72l-.261.402zm.867-1.341H78.696l.26-.402H93.586l-.26.402zm.866-1.341h-14.63l.26-.402H94.452l-.26.402zm.867-1.342H80.429l.26-.402H95.319l-.26.402zm.571-1.341H81.295l.084-.13h14.63l-.084.13h-.295z"></path><circle cx="55.364" cy="70.378" r=".939"></circle><circle cx="52.682" cy="73.061" r=".939"></circle><circle cx="58.047" cy="67.696" r=".939"></circle><circle cx="56.705" cy="69.037" r=".939"></circle><circle cx="54.023" cy="71.72" r=".939"></circle><circle cx="49.999" cy="65.013" r=".939"></circle><circle cx="49.999" cy="62.331" r=".939"></circle><circle cx="51.34" cy="69.037" r=".939"></circle><circle cx="51.34" cy="66.355" r=".939"></circle><circle cx="52.681" cy="70.378" r=".939"></circle><circle cx="40.61" cy="60.989" r=".939"></circle><circle cx="40.61" cy="55.624" r=".939"></circle><circle cx="41.951" cy="56.966" r=".939"></circle><circle cx="43.293" cy="55.624" r=".939"></circle><circle cx="40.61" cy="58.307" r=".939"></circle><circle cx="54.023" cy="63.672" r=".939"></circle><circle cx="55.364" cy="65.013" r=".939"></circle><circle cx="54.023" cy="66.355" r=".939"></circle><circle cx="55.364" cy="62.331" r=".939"></circle><circle cx="52.681" cy="65.013" r=".939"></circle><circle cx="56.705" cy="66.355" r=".939"></circle><circle cx="55.364" cy="67.696" r=".939"></circle><circle cx="54.023" cy="69.037" r=".939"></circle><circle cx="52.681" cy="67.696" r=".939"></circle><circle cx="51.34" cy="63.672" r=".939"></circle><circle cx="20.491" cy="30.14" r=".939"></circle><circle cx="8.419" cy="42.212" r=".939"></circle><circle cx="9.761" cy="40.87" r=".939"></circle><circle cx="12.443" cy="35.505" r=".939"></circle><circle cx="13.784" cy="36.847" r=".939"></circle><circle cx="15.126" cy="38.188" r=".939"></circle><circle cx="11.102" cy="36.846" r=".939"></circle><circle cx="9.761" cy="38.188" r=".939"></circle><circle cx="11.102" cy="34.164" r=".939"></circle><circle cx="15.126" cy="40.87" r=".939"></circle><circle cx="16.467" cy="36.846" r=".939"></circle><circle cx="11.102" cy="42.212" r=".939"></circle><circle cx="11.102" cy="39.529" r=".939"></circle><circle cx="12.443" cy="38.188" r=".939"></circle><circle cx="12.443" cy="43.553" r=".939"></circle><circle cx="16.467" cy="39.529" r=".939"></circle><circle cx="12.443" cy="40.87" r=".939"></circle><circle cx="13.784" cy="39.529" r=".939"></circle><circle cx="13.785" cy="42.212" r=".939"></circle><circle cx="21.832" cy="31.481" r=".939"></circle><circle cx="21.832" cy="28.799" r=".939"></circle><circle cx="17.808" cy="35.505" r=".939"></circle><circle cx="20.491" cy="27.458" r=".939"></circle><circle cx="19.15" cy="31.481" r=".939"></circle><circle cx="19.15" cy="34.164" r=".939"></circle><circle cx="20.491" cy="32.823" r=".939"></circle><circle cx="17.808" cy="38.188" r=".939"></circle><circle cx="19.15" cy="36.847" r=".939"></circle></g><!----></svg>