<svg data-v-fde0c5aa="" xmlns="http://www.w3.org/2000/svg" viewBox="0 0 300 300" class="iconAboveSlogan"><!----><defs data-v-fde0c5aa=""><!----></defs><rect data-v-fde0c5aa="" fill="#f8f9fa" x="0" y="0" width="300px" height="300px" class="logo-background-square"></rect><defs data-v-fde0c5aa=""><!----></defs><g data-v-fde0c5aa="" id="e98201a0-9d2b-4f7e-a5b5-074e72c3ad67" fill="#2F2F35" transform="matrix(8.396768787090847,0,0,8.396768787090847,11.621253481748925,133.93226389702755)"><path d="M1.80 8.67L1.80 8.67L1.80 8.67Q1.80 9.56 2.06 10.28L2.06 10.28L2.06 10.28Q2.32 11.01 2.75 11.46L2.75 11.46L2.75 11.46Q3.19 11.92 3.74 12.17L3.74 12.17L3.74 12.17Q4.29 12.41 4.91 12.41L4.91 12.41L4.91 12.41Q5.56 12.41 6.19 12.12L6.19 12.12L6.19 12.12Q6.82 11.83 7.29 11.39L7.29 11.39L7.54 11.91L7.54 11.91Q7.08 12.47 6.22 12.91L6.22 12.91L6.22 12.91Q5.37 13.34 4.38 13.34L4.38 13.34L4.38 13.34Q3.58 13.34 2.86 13.06L2.86 13.06L2.86 13.06Q2.14 12.78 1.57 12.27L1.57 12.27L1.57 12.27Q1.00 11.76 0.67 10.94L0.67 10.94L0.67 10.94Q0.33 10.13 0.33 9.14L0.33 9.14L0.33 9.14Q0.33 8.70 0.41 8.25L0.41 8.25L0.41 8.25Q0.49 7.80 0.67 7.34L0.67 7.34L0.67 7.34Q0.84 6.88 1.09 6.46L1.09 6.46L1.09 6.46Q1.33 6.05 1.70 5.69L1.70 5.69L1.70 5.69Q2.06 5.33 2.50 5.06L2.50 5.06L2.50 5.06Q2.93 4.79 3.51 4.64L3.51 4.64L3.51 4.64Q4.09 4.49 4.74 4.49L4.74 4.49L4.74 4.49Q6.30 4.49 7.21 5.17L7.21 5.17L7 7.45L6.40 7.36L6.12 5.86L6.12 5.86Q5.56 5.15 4.35 5.14L4.35 5.14L4.35 5.14Q3.25 5.14 2.53 6.10L2.53 6.10L2.53 6.10Q1.80 7.05 1.80 8.67ZM15.31 5.22L15.31 5.22L15.15 7.42L14.55 7.33L14.30 6.02L14.30 6.02Q14.01 5.72 13.41 5.48L13.41 5.48L13.41 5.48Q12.81 5.24 12.09 5.24L12.09 5.24L12.09 5.24Q11.67 5.24 11.29 5.36L11.29 5.36L11.29 5.36Q10.91 5.48 10.56 5.75L10.56 5.75L10.56 5.75Q10.22 6.03 9.96 6.43L9.96 6.43L9.96 6.43Q9.71 6.82 9.56 7.42L9.56 7.42L9.56 7.42Q9.41 8.02 9.41 8.75L9.41 8.75L9.41 8.75Q9.41 9.52 9.64 10.22L9.64 10.22L9.64 10.22Q9.86 10.91 10.28 11.45L10.28 11.45L10.28 11.45Q10.70 12.00 11.35 12.32L11.35 12.32L11.35 12.32Q12.00 12.65 12.79 12.65L12.79 12.65L12.79 12.65Q13.48 12.65 13.97 12.36L13.97 12.36L13.97 10.21L12.36 9.95L12.43 9.38L16.24 9.38L16.16 9.89L15.31 10.17L15.31 12.63L15.31 12.63Q14.64 13.03 13.85 13.21L13.85 13.21L13.85 13.21Q13.06 13.38 12.02 13.38L12.02 13.38L12.02 13.38Q11.21 13.38 10.54 13.18L10.54 13.18L10.54 13.18Q9.86 12.97 9.39 12.59L9.39 12.59L9.39 12.59Q8.91 12.22 8.58 11.69L8.58 11.69L8.58 11.69Q8.24 11.17 8.09 10.55L8.09 10.55L8.09 10.55Q7.93 9.93 7.93 9.22L7.93 9.22L7.93 9.22Q7.93 8.16 8.31 7.26L8.31 7.26L8.31 7.26Q8.70 6.36 9.33 5.78L9.33 5.78L9.33 5.78Q9.96 5.20 10.76 4.88L10.76 4.88L10.76 4.88Q11.57 4.56 12.43 4.56L12.43 4.56L12.43 4.56Q14.21 4.56 15.31 5.22ZM21.23 13.14L20.19 13.34L17.32 5.48L16.33 5.19L16.40 4.67L20.07 4.67L20.00 5.19L18.85 5.46L20.98 11.46L23.17 5.48L21.92 5.19L21.97 4.67L25.09 4.67L25.03 5.19L24.14 5.46L21.23 13.14ZM26.90 8.67L26.90 8.67L26.90 8.67Q26.90 9.56 27.16 10.28L27.16 10.28L27.16 10.28Q27.41 11.01 27.85 11.46L27.85 11.46L27.85 11.46Q28.28 11.92 28.83 12.17L28.83 12.17L28.83 12.17Q29.39 12.41 30.00 12.41L30.00 12.41L30.00 12.41Q30.65 12.41 31.28 12.12L31.28 12.12L31.28 12.12Q31.91 11.83 32.39 11.39L32.39 11.39L32.63 11.91L32.63 11.91Q32.17 12.47 31.32 12.91L31.32 12.91L31.32 12.91Q30.46 13.34 29.48 13.34L29.48 13.34L29.48 13.34Q28.68 13.34 27.96 13.06L27.96 13.06L27.96 13.06Q27.23 12.78 26.67 12.27L26.67 12.27L26.67 12.27Q26.10 11.76 25.76 10.94L25.76 10.94L25.76 10.94Q25.43 10.13 25.43 9.14L25.43 9.14L25.43 9.14Q25.43 8.70 25.51 8.25L25.51 8.25L25.51 8.25Q25.59 7.80 25.76 7.34L25.76 7.34L25.76 7.34Q25.94 6.88 26.18 6.46L26.18 6.46L26.18 6.46Q26.43 6.05 26.79 5.69L26.79 5.69L26.79 5.69Q27.15 5.33 27.59 5.06L27.59 5.06L27.59 5.06Q28.03 4.79 28.60 4.64L28.60 4.64L28.60 4.64Q29.18 4.49 29.83 4.49L29.83 4.49L29.83 4.49Q31.40 4.49 32.31 5.17L32.31 5.17L32.09 7.45L31.49 7.36L31.21 5.86L31.21 5.86Q30.66 5.15 29.44 5.14L29.44 5.14L29.44 5.14Q28.35 5.14 27.62 6.10L27.62 6.10L27.62 6.10Q26.90 7.05 26.90 8.67Z"></path></g><defs data-v-fde0c5aa=""><linearGradient data-v-fde0c5aa="" gradientTransform="rotate(25)" id="bf0f1afb-6198-42d2-bed7-0f1ae7edbcb1" x1="0%" y1="0%" x2="100%" y2="0%"><stop data-v-fde0c5aa="" offset="0%" stop-color="#FF0000" stop-opacity="1"></stop><stop data-v-fde0c5aa="" offset="100%" stop-color="#FFC06E" stop-opacity="1"></stop></linearGradient></defs><g data-v-fde0c5aa="" id="40d63045-56af-4de5-84f7-872a557ab1c1" stroke="none" fill="url(#bf0f1afb-6198-42d2-bed7-0f1ae7edbcb1)" transform="matrix(1.629270926191949,0,0,1.629270926191949,68.42892369899066,19.548584840855266)"><path d="M99.965 53.574a.86.86 0 0 0 .025-.053c.012-.025.024-.05.034-.076l.023-.062c.008-.023.017-.047.024-.071l.019-.073.015-.064.013-.084.007-.057c.003-.031.004-.062.005-.093l.002-.04-.001-.012c0-.03-.002-.06-.005-.09a1.091 1.091 0 0 0-.015-.127c-.004-.024-.007-.049-.012-.073l-.011-.043c-.008-.032-.015-.064-.025-.095l-.007-.02a1.817 1.817 0 0 0-.041-.111l-.02-.041c-.013-.028-.026-.057-.041-.084a1.269 1.269 0 0 0-.068-.111l-.004-.007a1.267 1.267 0 0 0-.083-.11l-.001-.001c-.023-.028-.048-.054-.073-.08l-.023-.024c-.019-.019-.04-.036-.06-.054l-.048-.043-.049-.037c-.023-.017-.046-.035-.07-.05l-.01-.007c-.012-.008-.024-.014-.037-.021a1.234 1.234 0 0 0-.209-.104l-.061-.023c-.024-.008-.047-.017-.072-.024a.923.923 0 0 0-.071-.018l-.066-.015a1.13 1.13 0 0 0-.081-.012c-.02-.003-.039-.006-.059-.007-.03-.003-.06-.004-.09-.005l-.043-.002H81.584l-3.441-8.907a1.453 1.453 0 0 0-2.742.089l-2.762 8.817h-4.69L63.59 40.454a1.45 1.45 0 0 0-2.46-.402l-3.984 4.711-9.05-16.9a1.456 1.456 0 0 0-1.167-.763 1.449 1.449 0 0 0-1.272.571l-9.232 12.177-6.418-11.985a1.456 1.456 0 0 0-1.167-.763 1.449 1.449 0 0 0-1.272.571l-1.253 1.653-3.368-15.625a1.453 1.453 0 0 0-2.803-.14l-5.689 17.63-3.044-4.976a1.453 1.453 0 0 0-2.616.295l-8.72 25.93-.003.011a.225.225 0 0 0-.008.024l-.015.057-.003.011c-.004.017-.01.035-.013.052l-.009.047a1.789 1.789 0 0 0-.015.1l-.001.01-.002.043a.907.907 0 0 0-.006.09v.019l.002.035c.001.029.001.058.003.086l.002.016.007.053.009.068.004.019c.004.022.01.043.015.064l.012.051.007.023.023.067.014.04a.306.306 0 0 0 .011.027l.029.064.017.038.014.028.032.056a1.49 1.49 0 0 0 .041.066c.01.016.022.031.033.046l.035.048.016.02.032.037.049.055a.1.1 0 0 0 .01.011l.005.005.03.028a1.618 1.618 0 0 0 .077.07l.03.023c.022.017.043.034.066.05l.057.037.06.036.02.012.053.026.052.025a.256.256 0 0 0 .024.011l.062.023.002.001.035.014a.164.164 0 0 1 .011.003l.023.008.053.014a1.072 1.072 0 0 0 .068.018c.021.005.043.008.064.011l.007.001.075.012.009.001.042.002c.031.002.061.005.092.005h27.302l1.921 8.913a1.453 1.453 0 0 0 2.598.546l2.844-3.927 2.437 10.121a1.454 1.454 0 0 0 2.746.236l3.704-8.564 5.59 19.563a1.453 1.453 0 0 0 2.597.42l7.576-11.107 3.222 6.672a1.454 1.454 0 0 0 2.529.157l8.948-13.852 6.612 13.695a1.454 1.454 0 0 0 2.529.157L99.898 53.69l.021-.036.046-.08zm-23.034-6.106l.22.57a.935.935 0 0 0-.327-.06l-.054.003.161-.513zm-1.154 3.682a.94.94 0 0 0 .456-1.454l.012-.04a.937.937 0 0 0 1.412-.307l.038.098a.939.939 0 0 0 .668 1.73l.105.272h-.718a.937.937 0 1 0-1.85 0h-.215l.092-.299zm-10.954.298H49.859l-.019-.049H64.803l.02.049zm-25.767-6.686l-.077-.144h.198l-.121.144zm25.375 5.698H49.468l-.159-.402h14.964l.158.402zm-3.358-5.841h1.042l.16.402h-1.542l.34-.402zm-1.134 1.341h2.708l.16.402h-3.208l.34-.402zm-1.134 1.341h4.374l.159.402h-4.874l.341-.402zm-2.083 1.478c.272.029.543-.021.783-.136h6.206l.189.476H48.937l-.189-.476h7.498c.147.071.308.118.476.136zm-1.298-1.075h-7.049l-.16-.402h6.993l.216.402zm-.718-1.342h-6.863l-.16-.402h6.807l.216.402zm-.718-1.341h-6.676l-.159-.402H53.774l.214.402zm-.719-1.341H46.78l-.16-.402h6.434l.215.402zm-.718-1.341h-6.303l-.159-.402h6.248l.214.402zm-.718-1.342h-6.117l-.159-.402h6.061l.215.402zm-5.229-9.765l.202.376h-.487l.285-.376zm-.998 1.315h1.702l.215.402h-2.222l.305-.402zm-1.017 1.342h3.437l.215.402h-3.957l.305-.402zm-1.017 1.341H48.744l.215.402h-5.693l.306-.402zm-1.017 1.341h6.907l.215.402H42.25l.305-.402zm-1.016 1.341h8.643l.215.402h-9.163l.305-.402zm-1.017 1.342H50.9l.215.402h-6.388a1.45 1.45 0 0 0-1.154 0h-3.356l.305-.402zm-1.017 1.341h3.076l-.34.402H39.2l.305-.402zm-1.017 1.341h2.958l-.34.402h-2.923l.305-.402zm.753 1.342h1.071l-.34.402h-1.495l-.215-.402h.979zM28.514 31.232l8.99 16.788a1.452 1.452 0 0 0 2.39.252l3.799-4.492 3.04 7.669H5.008L8.929 47.6l3.307 2.637a1.453 1.453 0 0 0 2.063-.258l14.215-18.747zm-7.443-11.084a.958.958 0 0 0 .235-.272l.019.087a.936.936 0 0 0-.288.293l.034-.108zm-10.66 10.668a.942.942 0 0 0 .216-.315l.079.129a.938.938 0 0 0-.312.235l.017-.049zM4.98 46.969a.936.936 0 0 0 .324-.965l.081-.24a.938.938 0 0 0 .598-1.775l.159-.472-.002.037a.938.938 0 1 0 .171-.539l.027-.081A.937.937 0 0 0 6.652 42l.086-.256a.938.938 0 0 0 .597-1.777l.146-.436a.94.94 0 1 0 .192-.57l.023-.068a.935.935 0 0 0 .302-.899l.091-.271a.94.94 0 0 0 .598-1.778l.137-.408a.938.938 0 1 0 .211-.628l.018-.055a.935.935 0 0 0 .289-.86l.098-.291a.938.938 0 0 0 .599-1.779l.128-.381a.938.938 0 0 0 1.513.676l.019.032a.938.938 0 0 0 .914 1.493l.235.385-.002.034c0 .377.222.701.542.85l.238.389c.167.273.414.477.699.591a.938.938 0 0 0 1.738-.526c.079-.114.142-.241.185-.377l.004-.014a.938.938 0 0 0 .574-1.78l.075-.232a.938.938 0 1 0 .313-.97l.339-1.052a.94.94 0 0 0 .576-1.784l.096-.296a.939.939 0 1 0 .27-.837l.015-.047a.938.938 0 0 0 .231-.716l.114-.354a.94.94 0 0 0 .577-1.787l.122-.379a.938.938 0 1 0 .216-.672l.388-1.201a.938.938 0 0 0 .575-1.784l.161-.5c-.001.021-.003.042-.003.064 0 .472.348.861.801.928l.176.818-.038-.002a.938.938 0 1 0 .421 1.778l.039.182a.936.936 0 0 0 .21.978l.008.037a.938.938 0 1 0 .206.959l.041.19a.938.938 0 0 0 .383 1.778l.176.819a.938.938 0 1 0 .369 1.713l.018.082a.936.936 0 0 0 .267 1.238l.032.129a.94.94 0 1 0-1.033 1.361l-.209.276a.938.938 0 1 0-.821 1.083l-.576.759a.94.94 0 1 0-.297.391l-.776 1.024a.94.94 0 0 0-.736.916l.003.051-.274.363a.938.938 0 0 0-.99 1.306l-.086.113a.938.938 0 0 0-1.108 1.462l-.016.021a.938.938 0 1 0-1.132 1.493l-.036.048a.938.938 0 1 0-1.067 1.407l-.155.204a.937.937 0 0 0-1.846.241c0 .519.42.939.939.939l.013-.001-.43.567a.94.94 0 0 0-1.824-.433l-.208-.165a.939.939 0 1 0-1.172-.934l-.429-.342c-.017-.014-.035-.026-.053-.038.026.002.052.004.078.004a.938.938 0 1 0-.639-.252l-.036-.006a.938.938 0 0 0-1.606.661l.003.054-.358.351-.047-.002a.94.94 0 0 0-.937.969l-.379.372-.023-.001a.938.938 0 0 0-.792.436l.035-.105zm-.182.614l-.036.036.04-.119a.967.967 0 0 0-.004.077v.006zM32.812 59.47l-.053-.245a.935.935 0 0 0 .336-.145l-.283.39zm3.27-4.269a.938.938 0 1 0-1.13 1.316l-.144.199a.939.939 0 1 0-.904 1.19l.044-.002-.485.67a.94.94 0 0 0-1.098-1.183l-.197-.914a.938.938 0 1 0-.316-1.463l-.006-.029a.936.936 0 0 0 .311-.629h.812a.938.938 0 0 0 1.87 0h.811c.027.352.248.65.556.787a.996.996 0 0 0-.124.058zm4.261 9.896l-.14-.579a.939.939 0 0 0 .351.091l-.211.488zM52.52 77.466l-.251-.88a.94.94 0 0 0 .865-.019l-.614.899zm6.195-9.083a.93.93 0 0 0-.182.267l-.541.793a.938.938 0 0 0-.838 1.228l-.117.172a.937.937 0 0 0-1.027 1.506l-.013.02a.938.938 0 1 0-1.047 1.534l-.074.109a.939.939 0 1 0-.905 1.326l-.359.527a.94.94 0 0 0-1.726-.619l-.019-.067a.937.937 0 0 0-.49-1.714l-.237-.828a.938.938 0 1 0-.454-1.59l-.007-.023a.94.94 0 0 0-.444-1.554l-.239-.836h.002A.938.938 0 1 0 49.5 66.9l-.025-.087a.937.937 0 0 0-.366-1.282l-.268-.939a.94.94 0 0 0-.184-1.86.93.93 0 0 0-.33.061l-.087-.304a.933.933 0 0 0-.224-.782l-.013-.044a.938.938 0 1 0-.257-.901l-.071-.247a.94.94 0 1 0-.513-1.793l-.261-.915a.94.94 0 1 0-.432-1.249 1.434 1.434 0 0 0-.072-.097.939.939 0 1 0-1.311-.53 1.44 1.44 0 0 0-.379.099c-.025-.002-.05-.004-.076-.004a.938.938 0 0 0-.896 1.221l-.083.193a.938.938 0 0 0-.745 1.723l-.074.171a.94.94 0 1 0-.507 1.173l-.383.884a.939.939 0 0 0-.682 1.577l-.009.022a.935.935 0 0 0-1.391.114l-.01-.04a.937.937 0 0 0-.398-1.654l-.198-.824.012.001a.938.938 0 1 0-.438-1.769l-.036-.151a.936.936 0 0 0-.258-1.074l-.015-.06a.938.938 0 1 0-.177-.732l-.073-.304a.939.939 0 1 0-1.108-1.418 1.22 1.22 0 0 0-.058-.014.939.939 0 0 0 .415-.71h.813a.938.938 0 0 0 1.87 0h.812a.938.938 0 0 0 1.87 0h.812a.938.938 0 0 0 1.87 0h.812a.94.94 0 0 0 1.694.48l.017.042a.938.938 0 0 0 .667 1.681l.372.939a.938.938 0 1 0 .427 1.076l.082.208a.94.94 0 0 0 .692 1.745l.097.244a.938.938 0 0 0 .694 1.132 1.46 1.46 0 0 0 .636.26.938.938 0 1 0 1.472-.592l.034-.028a.937.937 0 1 0 1.438-1.198l.017-.014a.936.936 0 0 0 1.147.112l.033.069a.939.939 0 0 0 .68 1.41l.415.86a.938.938 0 1 0 .589 1.221l.076.158a.938.938 0 1 0 .816 1.689l.057.119a.938.938 0 0 0 .627 1.298l.132.272-.574.845zm6.749 5.252L57.307 56.74a1.452 1.452 0 0 0-2.239-.484l-2.482 2.069-1.574-3.97H77.92l-12.456 19.28zm18.33-.373h-.422l-.194-.402h.876l-.26.402zm.867-1.341h-1.936l-.194-.402h2.39l-.26.402zm.866-1.342h-3.45l-.194-.402h3.904l-.26.402zm.867-1.341H81.43l-.194-.402h5.418l-.26.402zm.866-1.341h-6.478l-.194-.402h6.932l-.26.402zm.867-1.341H80.135l-.194-.402h8.446l-.26.402zm.866-1.342h-9.507l-.194-.402H89.253l-.26.402zm.867-1.341H78.84l-.194-.402H90.121l-.261.402zm.866-1.341H78.191l-.194-.402H90.986l-.26.402zm.867-1.342H77.544l-.194-.402H91.852l-.259.402zm.866-1.341h-14.63l.26-.402H92.72l-.261.402zm.867-1.341H78.696l.26-.402H93.586l-.26.402zm.866-1.341h-14.63l.26-.402H94.452l-.26.402zm.867-1.342H80.429l.26-.402H95.319l-.26.402zm.571-1.341H81.295l.084-.13h14.63l-.084.13h-.295z"></path><circle cx="55.364" cy="70.378" r=".939"></circle><circle cx="52.682" cy="73.061" r=".939"></circle><circle cx="58.047" cy="67.696" r=".939"></circle><circle cx="56.705" cy="69.037" r=".939"></circle><circle cx="54.023" cy="71.72" r=".939"></circle><circle cx="49.999" cy="65.013" r=".939"></circle><circle cx="49.999" cy="62.331" r=".939"></circle><circle cx="51.34" cy="69.037" r=".939"></circle><circle cx="51.34" cy="66.355" r=".939"></circle><circle cx="52.681" cy="70.378" r=".939"></circle><circle cx="40.61" cy="60.989" r=".939"></circle><circle cx="40.61" cy="55.624" r=".939"></circle><circle cx="41.951" cy="56.966" r=".939"></circle><circle cx="43.293" cy="55.624" r=".939"></circle><circle cx="40.61" cy="58.307" r=".939"></circle><circle cx="54.023" cy="63.672" r=".939"></circle><circle cx="55.364" cy="65.013" r=".939"></circle><circle cx="54.023" cy="66.355" r=".939"></circle><circle cx="55.364" cy="62.331" r=".939"></circle><circle cx="52.681" cy="65.013" r=".939"></circle><circle cx="56.705" cy="66.355" r=".939"></circle><circle cx="55.364" cy="67.696" r=".939"></circle><circle cx="54.023" cy="69.037" r=".939"></circle><circle cx="52.681" cy="67.696" r=".939"></circle><circle cx="51.34" cy="63.672" r=".939"></circle><circle cx="20.491" cy="30.14" r=".939"></circle><circle cx="8.419" cy="42.212" r=".939"></circle><circle cx="9.761" cy="40.87" r=".939"></circle><circle cx="12.443" cy="35.505" r=".939"></circle><circle cx="13.784" cy="36.847" r=".939"></circle><circle cx="15.126" cy="38.188" r=".939"></circle><circle cx="11.102" cy="36.846" r=".939"></circle><circle cx="9.761" cy="38.188" r=".939"></circle><circle cx="11.102" cy="34.164" r=".939"></circle><circle cx="15.126" cy="40.87" r=".939"></circle><circle cx="16.467" cy="36.846" r=".939"></circle><circle cx="11.102" cy="42.212" r=".939"></circle><circle cx="11.102" cy="39.529" r=".939"></circle><circle cx="12.443" cy="38.188" r=".939"></circle><circle cx="12.443" cy="43.553" r=".939"></circle><circle cx="16.467" cy="39.529" r=".939"></circle><circle cx="12.443" cy="40.87" r=".939"></circle><circle cx="13.784" cy="39.529" r=".939"></circle><circle cx="13.785" cy="42.212" r=".939"></circle><circle cx="21.832" cy="31.481" r=".939"></circle><circle cx="21.832" cy="28.799" r=".939"></circle><circle cx="17.808" cy="35.505" r=".939"></circle><circle cx="20.491" cy="27.458" r=".939"></circle><circle cx="19.15" cy="31.481" r=".939"></circle><circle cx="19.15" cy="34.164" r=".939"></circle><circle cx="20.491" cy="32.823" r=".939"></circle><circle cx="17.808" cy="38.188" r=".939"></circle><circle cx="19.15" cy="36.847" r=".939"></circle></g><defs data-v-fde0c5aa=""><!----></defs><g data-v-fde0c5aa="" id="e558173a-8b44-4571-9828-3c05f29e6d04" fill="#2F2F35" transform="matrix(0.36857965456116837,0,0,0.36857965456116837,48.076678460203176,255.2121501958591)"><path d="M0.59 7.91C0.59 11.31 2.95 12.87 5.54 12.87C7.32 12.87 9.10 11.90 9.14 11.59C9.31 10.29 9.37 9.70 9.37 9.66C9.37 9.56 9.32 9.52 9.16 9.51C9.10 9.51 9.04 9.49 9.00 9.49C8.89 9.49 8.83 9.53 8.81 9.70L8.62 11.33C8.61 11.45 7.50 12.24 5.94 12.24C3.81 12.24 2.10 10.29 2.10 7.94C2.10 5.42 3.53 3.54 5.53 3.54C7.38 3.54 8.72 5.01 8.72 5.17C8.72 5.29 8.67 6.40 8.67 6.45C8.67 6.59 8.71 6.64 8.97 6.64C9.17 6.64 9.24 6.62 9.24 6.44C9.24 5.73 9.30 3.92 9.30 3.67C9.30 3.47 9.18 3.44 8.97 3.44C8.75 3.44 8.72 3.50 8.72 3.67L8.72 4.05C8.72 4.16 8.68 4.16 8.55 4.06C8.27 3.86 7.29 3.04 5.63 3.04C2.79 3.04 0.59 4.96 0.59 7.91ZM17.82 8.15C17.82 11.17 20.16 12.80 22.41 12.80C25.20 12.80 27.17 10.89 27.17 8.06C27.17 5.33 25.42 3.11 22.62 3.11C20.02 3.11 17.82 5.10 17.82 8.15ZM19.22 7.77C19.22 5.64 20.51 3.58 22.48 3.58C24.72 3.58 25.80 5.81 25.80 7.94C25.80 10.08 24.70 12.32 22.43 12.32C20.44 12.32 19.22 10.28 19.22 7.77ZM35.21 12.39C35.21 12.63 35.24 12.68 35.43 12.68C35.67 12.68 36.18 12.64 36.60 12.64C37.02 12.64 37.51 12.68 37.83 12.68C38.00 12.68 38.02 12.61 38.02 12.40C38.02 12.24 38.00 12.18 37.83 12.18L36.86 12.18C36.81 12.18 36.79 11.54 36.79 10.79C36.79 8.96 36.83 6.13 36.90 4.28C36.93 3.88 36.96 3.91 37.10 4.27L40.36 12.32C40.46 12.54 40.53 12.74 40.64 12.74C40.74 12.74 40.81 12.63 40.89 12.45C41.23 11.79 41.41 11.75 41.68 11.09L44.27 4.47C44.39 4.16 44.44 4.02 44.45 4.47C44.48 5.66 44.52 8.47 44.52 9.74C44.52 10.99 44.48 12.18 44.42 12.18L43.79 12.18C43.57 12.18 43.50 12.19 43.50 12.39C43.50 12.63 43.53 12.68 43.72 12.68C43.92 12.68 44.62 12.64 45.22 12.64C45.64 12.64 46.40 12.68 46.72 12.68C46.89 12.68 46.91 12.61 46.91 12.40C46.91 12.22 46.86 12.18 46.69 12.18L45.96 12.18C45.85 12.18 45.75 8.44 45.75 6.03L45.75 4.77C45.75 4.17 45.78 3.77 45.82 3.70L46.48 3.70C46.70 3.70 46.75 3.68 46.75 3.49C46.75 3.25 46.73 3.19 46.54 3.19C46.21 3.19 45.53 3.23 45.11 3.23L44.44 3.23C44.21 3.23 44.18 3.29 44.07 3.58L41.33 10.72C41.24 10.95 41.22 11.02 41.10 10.74L38.16 3.40C38.09 3.22 38.04 3.19 37.90 3.19C37.81 3.19 37.32 3.23 37.02 3.23C36.51 3.23 35.66 3.19 35.46 3.19C35.32 3.19 35.32 3.26 35.32 3.47C35.32 3.64 35.32 3.70 35.46 3.70L36.16 3.70C36.43 3.70 36.43 3.72 36.43 3.84C36.43 4.82 36.22 9.94 36.18 10.79C36.13 11.55 36.13 12.18 36.08 12.18L35.50 12.18C35.28 12.18 35.21 12.19 35.21 12.39ZM54.81 3.51C54.81 3.75 54.85 3.79 55.06 3.79L55.99 3.77C56.04 3.77 56.04 4.47 56.04 5.24L56.04 5.96C56.04 7.70 56.03 12.18 55.92 12.18L55.24 12.18C55.02 12.18 54.95 12.19 54.95 12.39C54.95 12.63 54.96 12.68 55.16 12.68C55.29 12.68 56.27 12.64 56.69 12.64C57.11 12.64 57.97 12.68 58.30 12.68C58.46 12.68 58.49 12.61 58.49 12.40C58.49 12.24 58.46 12.18 58.30 12.18L57.30 12.18C57.26 12.18 57.25 10.60 57.25 9.58L57.25 8.65C57.25 8.57 57.25 8.54 57.34 8.54C57.74 8.54 58.06 8.58 58.56 8.58C60.55 8.58 61.95 7.83 61.95 6.01C61.95 4.09 60.47 3.22 58.55 3.22C58.23 3.22 57.13 3.29 56.71 3.29C56.48 3.29 55.29 3.26 55.06 3.26C54.88 3.26 54.81 3.28 54.81 3.51ZM57.26 8.05L57.26 4.40C57.26 4.05 57.27 3.70 57.32 3.68C57.44 3.67 57.61 3.67 57.75 3.67C59.40 3.67 60.66 4.47 60.66 5.80C60.66 7.57 59.33 8.19 57.75 8.19C57.50 8.19 57.26 8.16 57.26 8.05ZM69.71 3.51C69.71 3.75 69.79 3.77 69.96 3.77L70.49 3.77C70.55 3.77 70.55 4.12 70.55 4.55C70.55 5.66 70.53 8.96 70.53 9.42C70.53 11.13 70.78 12.80 73.64 12.80C74.72 12.80 75.88 12.38 76.54 12.00C76.79 11.86 77.08 11.72 77.17 11.72C77.43 11.72 77.70 12.74 78.04 12.74C78.36 12.74 78.37 12.35 78.37 12.25C78.37 11.96 78.43 10.08 78.47 8.16C78.53 6.12 78.51 3.77 78.62 3.77L78.95 3.77C79.17 3.77 79.24 3.75 79.24 3.56C79.24 3.32 79.20 3.26 79.00 3.26C78.86 3.26 78.33 3.30 77.91 3.30C77.49 3.30 76.69 3.26 76.47 3.26C76.29 3.26 76.19 3.28 76.19 3.51C76.19 3.75 76.30 3.77 76.47 3.77L77.17 3.77C77.24 3.77 77.25 4.30 77.25 4.87L77.25 9.14C77.25 11.19 77.25 11.12 76.92 11.34C76.52 11.61 75.71 12.08 74.54 12.08C72.56 12.08 71.76 11.17 71.76 9.41C71.76 8.82 71.83 3.77 71.95 3.77L72.86 3.77C73.08 3.77 73.12 3.75 73.12 3.56C73.12 3.32 73.11 3.26 72.91 3.26C72.59 3.26 71.71 3.30 71.29 3.30C70.87 3.30 70.18 3.26 69.96 3.26C69.78 3.26 69.71 3.28 69.71 3.51ZM87.01 5.01C87.01 5.17 87.19 5.17 87.32 5.17C87.47 5.17 87.51 5.15 87.53 4.97L87.64 3.89C87.65 3.81 88.20 3.75 88.96 3.75L90.94 3.75C91.00 3.75 91.03 4.35 91.03 4.97C91.03 6.43 90.97 12.18 90.85 12.18L89.98 12.18C89.75 12.18 89.71 12.19 89.71 12.39C89.71 12.63 89.73 12.68 89.92 12.68C90.24 12.68 91.22 12.64 91.64 12.64C92.06 12.64 93.00 12.68 93.32 12.68C93.49 12.68 93.52 12.61 93.52 12.40C93.52 12.24 93.49 12.18 93.32 12.18L92.33 12.18C92.30 12.18 92.30 11.76 92.30 11.31C92.30 9.56 92.39 5.96 92.39 5.92C92.40 5.18 92.40 3.75 92.50 3.75L94.11 3.75C94.82 3.75 95.65 3.78 95.65 3.85C95.65 3.99 95.61 4.90 95.61 4.97C95.61 5.12 95.68 5.17 95.86 5.17C96.05 5.17 96.12 5.17 96.12 5.03C96.12 3.93 96.18 3.40 96.18 3.14C96.18 2.94 96.10 2.94 95.90 2.94C95.75 2.94 95.69 2.98 95.68 3.16C95.68 3.23 95.03 3.28 94.19 3.28L89.19 3.28C88.54 3.28 87.72 3.28 87.72 3.21L87.72 3.07C87.72 2.94 87.60 2.94 87.50 2.94C87.28 2.94 87.25 3.00 87.23 3.19C87.18 3.89 87.01 4.97 87.01 5.01ZM103.94 12.39C103.94 12.63 103.96 12.68 104.16 12.68C104.48 12.68 105.45 12.64 105.87 12.64C106.29 12.64 110.80 12.68 111.12 12.68C111.24 12.68 111.40 12.66 111.40 12.49C111.40 12.07 111.44 11.23 111.44 10.53C111.44 10.39 111.29 10.39 111.16 10.39C111.05 10.39 110.92 10.39 110.92 10.51C110.91 11.06 110.91 11.41 110.88 11.76C110.85 12.01 110.85 12.04 110.75 12.04C110.60 12.04 107.97 12.08 106.47 12.08C106.40 12.08 106.36 10.11 106.32 8.26C106.32 8.06 106.36 8.09 106.50 8.09L108.78 8.09C109.48 8.09 109.51 8.20 109.51 8.30L109.51 9.00C109.51 9.14 109.69 9.14 109.80 9.14C109.90 9.14 110.03 9.13 110.03 9.02C110.03 8.83 110.00 8.33 110.00 7.83C110.00 7.32 110.03 6.83 110.03 6.71C110.03 6.59 109.89 6.58 109.79 6.58C109.68 6.58 109.51 6.59 109.51 6.72L109.51 7.45C109.51 7.62 109.06 7.63 108.78 7.63L106.44 7.63C106.33 7.63 106.32 7.63 106.32 7.45C106.30 6.75 106.29 6.06 106.29 5.46C106.29 5.12 106.29 3.71 106.37 3.71C107.60 3.71 110.11 3.75 110.11 3.81C110.11 3.99 110.07 4.83 110.07 4.89C110.07 5.04 110.14 5.10 110.32 5.10C110.52 5.10 110.59 5.08 110.59 4.94C110.59 3.85 110.64 3.36 110.64 3.09C110.64 2.91 110.56 2.90 110.36 2.90C110.17 2.90 110.17 2.95 110.14 3.11C110.12 3.25 110.19 3.25 109.28 3.25C108.67 3.25 106.53 3.29 105.76 3.29C105.27 3.29 104.33 3.25 104.23 3.25C104.10 3.25 104.05 3.30 104.05 3.49C104.05 3.72 104.12 3.74 104.29 3.74L104.94 3.74C105 3.74 105.07 4.79 105.07 5.71C105.07 5.80 105.13 8.27 105.13 9.83L105.13 11.17C105.13 11.84 105.10 12.18 105.07 12.18L104.22 12.18C103.99 12.18 103.94 12.21 103.94 12.39ZM119.41 3.51C119.41 3.72 119.48 3.79 119.67 3.79L120.48 3.77C120.58 3.77 120.62 6.61 120.62 8.55L120.62 10.42C120.62 11.30 120.61 12.18 120.57 12.18L119.97 12.18C119.74 12.18 119.67 12.19 119.67 12.39C119.67 12.63 119.71 12.68 119.91 12.68C120.04 12.68 120.86 12.64 121.28 12.64C121.70 12.64 122.47 12.68 122.79 12.68C122.96 12.68 122.99 12.61 122.99 12.40C122.99 12.24 122.96 12.18 122.79 12.18L121.98 12.18C121.91 12.18 121.83 9.18 121.83 8.37C121.83 8.30 121.83 8.26 121.94 8.26C122.33 8.26 122.93 8.27 123.23 8.27C125.47 8.32 125.61 10.00 125.61 11.68L125.61 12.49C125.61 12.61 125.66 12.64 125.76 12.64C125.76 12.64 127.20 12.68 127.68 12.68C127.85 12.68 127.90 12.64 127.90 12.53C127.90 12.24 127.85 12.18 127.69 12.18L127.05 12.18C126.95 12.18 126.92 12.14 126.90 11.31C126.81 8.99 125.44 8.34 124.53 8.05C124.39 8.01 124.42 8.01 124.53 7.95C125.12 7.69 126.43 6.94 126.43 5.63C126.43 3.63 124.74 3.21 123.34 3.21C123.02 3.21 121.73 3.29 121.31 3.29C120.89 3.29 119.91 3.26 119.69 3.26C119.50 3.26 119.41 3.28 119.41 3.51ZM121.83 7.80L121.83 4.40C121.83 4.05 121.86 3.68 121.90 3.68C122.11 3.65 122.39 3.65 122.61 3.65C123.91 3.65 125.16 4.47 125.16 5.82C125.16 6.99 124.61 7.57 123.96 7.88C123.91 7.90 123.87 7.90 123.80 7.90C123.33 7.88 122.61 7.88 122.01 7.87C121.84 7.87 121.83 7.85 121.83 7.80ZM145.25 7.91C145.25 11.40 147.62 12.89 150.21 12.89C152.10 12.89 154.10 11.89 154.10 11.58C154.10 11.12 154.11 10.68 154.11 10.33C154.11 9.81 154.13 9.56 154.25 9.56L154.69 9.56C154.83 9.56 154.84 9.39 154.84 9.30C154.84 9.18 154.83 9.06 154.69 9.06C154.46 9.06 154.10 9.10 153.43 9.10C152.98 9.10 152.24 9.07 151.55 9.06C151.41 9.06 151.41 9.24 151.41 9.35C151.41 9.45 151.44 9.56 151.56 9.56L152.78 9.56C152.82 9.56 152.88 9.87 152.88 10.33C152.88 10.82 152.87 11.41 152.84 11.65C152.82 11.76 152.18 12.39 150.60 12.39C148.36 12.39 146.76 10.29 146.76 7.94C146.76 5.42 148.32 3.54 150.32 3.54C152.21 3.54 153.38 4.87 153.38 5.03C153.38 5.15 153.33 6.12 153.33 6.17C153.33 6.31 153.37 6.36 153.64 6.36C153.83 6.36 153.90 6.33 153.90 6.15C153.90 5.43 153.94 3.75 153.94 3.56C153.94 3.36 153.85 3.33 153.64 3.33C153.41 3.33 153.38 3.39 153.38 3.56L153.38 3.91C153.38 3.99 153.34 4.02 153.22 3.92C152.94 3.72 151.94 3.08 150.37 3.08C147.53 3.08 145.25 4.79 145.25 7.91ZM162.88 3.51C162.88 3.72 162.95 3.79 163.14 3.79L163.95 3.77C164.05 3.77 164.09 6.61 164.09 8.55L164.09 10.42C164.09 11.30 164.08 12.18 164.04 12.18L163.44 12.18C163.21 12.18 163.14 12.19 163.14 12.39C163.14 12.63 163.18 12.68 163.38 12.68C163.51 12.68 164.33 12.64 164.75 12.64C165.17 12.64 165.94 12.68 166.26 12.68C166.43 12.68 166.46 12.61 166.46 12.40C166.46 12.24 166.43 12.18 166.26 12.18L165.45 12.18C165.38 12.18 165.30 9.18 165.30 8.37C165.30 8.30 165.30 8.26 165.41 8.26C165.80 8.26 166.40 8.27 166.70 8.27C168.94 8.32 169.08 10.00 169.08 11.68L169.08 12.49C169.08 12.61 169.13 12.64 169.23 12.64C169.23 12.64 170.67 12.68 171.15 12.68C171.32 12.68 171.37 12.64 171.37 12.53C171.37 12.24 171.32 12.18 171.16 12.18L170.52 12.18C170.42 12.18 170.39 12.14 170.37 11.31C170.28 8.99 168.91 8.34 168.00 8.05C167.86 8.01 167.89 8.01 168.00 7.95C168.59 7.69 169.90 6.94 169.90 5.63C169.90 3.63 168.21 3.21 166.81 3.21C166.49 3.21 165.20 3.29 164.78 3.29C164.36 3.29 163.38 3.26 163.16 3.26C162.97 3.26 162.88 3.28 162.88 3.51ZM165.30 7.80L165.30 4.40C165.30 4.05 165.33 3.68 165.37 3.68C165.58 3.65 165.86 3.65 166.08 3.65C167.38 3.65 168.63 4.47 168.63 5.82C168.63 6.99 168.08 7.57 167.43 7.88C167.38 7.90 167.34 7.90 167.27 7.90C166.80 7.88 166.08 7.88 165.48 7.87C165.31 7.87 165.30 7.85 165.30 7.80ZM178.71 12.39C178.71 12.63 178.71 12.68 178.91 12.68C179.07 12.68 179.40 12.64 179.97 12.64C180.59 12.64 181.13 12.68 181.29 12.68C181.45 12.68 181.45 12.61 181.45 12.40C181.45 12.24 181.45 12.18 181.29 12.18L180.21 12.18C180.21 12.18 180.19 12.18 180.19 12.17C180.21 11.87 180.98 9.90 181.33 9.02C181.40 8.83 181.41 8.79 181.62 8.79L184.45 8.79C184.59 8.79 184.59 8.81 184.66 9.03C184.93 9.77 185.64 11.89 185.64 12.17C185.64 12.18 185.63 12.18 185.63 12.18L184.86 12.18C184.63 12.18 184.62 12.19 184.62 12.39C184.62 12.63 184.63 12.68 184.80 12.68C185.12 12.68 185.99 12.64 186.41 12.64C186.83 12.64 187.50 12.68 187.71 12.68C187.85 12.68 187.87 12.61 187.87 12.40C187.87 12.24 187.85 12.18 187.71 12.18L187.22 12.18C187.12 12.18 186.10 9.34 185.54 7.78L183.86 3.07C183.85 3.00 183.78 2.94 183.69 2.94C183.57 2.94 183.47 3.16 183.39 3.35C183.23 3.71 182.99 3.84 182.88 4.13L181.40 7.57C181.22 8.01 179.51 12.18 179.38 12.18L178.96 12.18C178.74 12.18 178.71 12.19 178.71 12.39ZM181.61 8.33C181.61 8.30 181.64 8.23 181.68 8.13L183.05 4.77C183.09 4.66 183.12 4.61 183.15 4.61C183.16 4.61 183.18 4.63 183.22 4.77L184.38 8.18C184.41 8.25 184.42 8.29 184.42 8.32C184.42 8.36 184.39 8.37 184.30 8.37L181.79 8.37C181.61 8.37 181.61 8.34 181.61 8.33ZM195.62 3.51C195.62 3.75 195.66 3.79 195.87 3.79L196.80 3.77C196.85 3.77 196.85 4.47 196.85 5.24L196.85 5.96C196.85 7.70 196.84 12.18 196.73 12.18L196.06 12.18C195.83 12.18 195.76 12.19 195.76 12.39C195.76 12.63 195.78 12.68 195.97 12.68C196.10 12.68 197.08 12.64 197.50 12.64C197.92 12.64 198.79 12.68 199.11 12.68C199.28 12.68 199.30 12.61 199.30 12.40C199.30 12.24 199.28 12.18 199.11 12.18L198.11 12.18C198.07 12.18 198.06 10.60 198.06 9.58L198.06 8.65C198.06 8.57 198.06 8.54 198.16 8.54C198.55 8.54 198.87 8.58 199.37 8.58C201.36 8.58 202.76 7.83 202.76 6.01C202.76 4.09 201.28 3.22 199.36 3.22C199.04 3.22 197.95 3.29 197.53 3.29C197.29 3.29 196.10 3.26 195.87 3.26C195.69 3.26 195.62 3.28 195.62 3.51ZM198.07 8.05L198.07 4.40C198.07 4.05 198.09 3.70 198.13 3.68C198.25 3.67 198.42 3.67 198.56 3.67C200.21 3.67 201.47 4.47 201.47 5.80C201.47 7.57 200.14 8.19 198.56 8.19C198.31 8.19 198.07 8.16 198.07 8.05ZM210.52 12.39C210.52 12.63 210.52 12.68 210.71 12.68C211.04 12.68 211.97 12.64 212.39 12.64C212.81 12.64 213.64 12.68 213.96 12.68C214.13 12.68 214.13 12.61 214.13 12.40C214.13 12.24 214.13 12.18 213.96 12.18L213.04 12.18C212.95 12.18 212.91 9.93 212.91 8.20C212.91 8.01 212.91 8.01 213.04 8.01L218.27 8.01C218.34 8.01 218.36 8.01 218.36 8.18L218.36 9.91C218.36 11.05 218.34 12.18 218.29 12.18L217.52 12.18C217.29 12.18 217.25 12.19 217.25 12.39C217.25 12.63 217.27 12.68 217.46 12.68C217.78 12.68 218.62 12.64 219.04 12.64C219.46 12.64 220.05 12.68 220.37 12.68C220.54 12.68 220.56 12.61 220.56 12.40C220.56 12.24 220.54 12.18 220.37 12.18L219.63 12.18C219.59 12.18 219.58 9.27 219.58 7.04C219.58 5.40 219.58 3.70 219.62 3.70L220.23 3.70C220.46 3.70 220.50 3.68 220.50 3.49C220.50 3.25 220.49 3.19 220.29 3.19C220.15 3.19 219.52 3.23 218.93 3.23C218.26 3.23 217.66 3.19 217.43 3.19C217.24 3.19 217.21 3.22 217.21 3.44C217.21 3.67 217.28 3.70 217.45 3.70L218.25 3.70C218.30 3.70 218.36 4.79 218.36 5.71L218.36 7.42C218.36 7.59 218.36 7.59 218.19 7.59L213.08 7.59C212.91 7.59 212.91 7.59 212.91 7.38C212.91 6.96 212.90 6.23 212.90 5.53C212.90 4.66 212.91 3.70 212.97 3.70L213.74 3.70C213.96 3.70 214.00 3.68 214.00 3.49C214.00 3.25 213.99 3.19 213.79 3.19C213.47 3.19 212.88 3.23 212.28 3.23C211.69 3.23 211.20 3.19 210.98 3.19C210.80 3.19 210.70 3.21 210.70 3.44C210.70 3.68 210.81 3.70 210.98 3.70L211.60 3.70C211.65 3.70 211.67 5.59 211.67 7.18L211.67 8.61C211.67 10.08 211.65 12.18 211.58 12.18L210.77 12.18C210.55 12.18 210.52 12.19 210.52 12.39ZM228.45 12.39C228.45 12.63 228.49 12.68 228.69 12.68C229.01 12.68 229.77 12.64 230.48 12.64C231.14 12.64 231.94 12.68 232.16 12.68C232.33 12.68 232.36 12.61 232.36 12.40C232.36 12.24 232.33 12.18 232.16 12.18L231.20 12.18C231.10 12.18 231.07 9.55 231.07 7.76L231.07 5.87C231.07 5.14 231.10 3.70 231.20 3.70L232.11 3.70C232.33 3.70 232.36 3.68 232.36 3.49C232.36 3.25 232.33 3.19 232.16 3.19C231.84 3.19 231.17 3.23 230.51 3.23C229.70 3.23 228.98 3.19 228.76 3.19C228.58 3.19 228.51 3.21 228.51 3.44C228.51 3.68 228.59 3.70 228.76 3.70L229.68 3.70C229.73 3.70 229.80 4.79 229.80 5.71L229.80 7.08C229.80 8.92 229.78 12.18 229.67 12.18L228.75 12.18C228.52 12.18 228.45 12.19 228.45 12.39ZM240.32 7.91C240.32 11.31 242.69 12.87 245.28 12.87C247.06 12.87 248.84 11.90 248.88 11.59C249.05 10.29 249.10 9.70 249.10 9.66C249.10 9.56 249.06 9.52 248.89 9.51C248.84 9.51 248.78 9.49 248.74 9.49C248.63 9.49 248.57 9.53 248.54 9.70L248.36 11.33C248.35 11.45 247.24 12.24 245.67 12.24C243.54 12.24 241.84 10.29 241.84 7.94C241.84 5.42 243.26 3.54 245.27 3.54C247.11 3.54 248.46 5.01 248.46 5.17C248.46 5.29 248.40 6.40 248.40 6.45C248.40 6.59 248.44 6.64 248.71 6.64C248.91 6.64 248.98 6.62 248.98 6.44C248.98 5.73 249.03 3.92 249.03 3.67C249.03 3.47 248.92 3.44 248.71 3.44C248.49 3.44 248.46 3.50 248.46 3.67L248.46 4.05C248.46 4.16 248.42 4.16 248.29 4.06C248.01 3.86 247.03 3.04 245.36 3.04C242.52 3.04 240.32 4.96 240.32 7.91ZM257.70 5.77C257.70 9.07 262.68 8.20 262.68 10.65C262.68 11.59 261.84 12.31 260.86 12.31C260.04 12.31 258.44 11.83 258.41 11.47L258.33 10.15C258.31 9.97 258.24 9.91 258.06 9.91L257.99 9.91C257.78 9.91 257.78 10.00 257.78 10.12C257.78 10.32 257.89 11.66 257.92 12.17C257.94 12.38 259.20 12.85 260.74 12.85C262.30 12.85 263.91 11.87 263.91 10.11C263.91 6.79 258.94 7.87 258.94 5.32C258.94 4.31 259.73 3.56 260.76 3.56C261.79 3.56 262.88 4.58 262.88 4.89C262.88 5.01 262.84 5.73 262.84 5.78C262.84 5.92 262.88 5.99 263.14 5.99C263.38 5.99 263.40 5.94 263.40 5.75C263.40 5.04 263.48 3.68 263.48 3.53C263.48 3.30 263.44 3.29 263.17 3.29C262.95 3.29 262.93 3.32 262.92 3.53C262.92 3.61 262.91 3.78 262.86 3.78C262.81 3.78 262.72 3.74 262.65 3.68C261.86 3.14 261.24 3.08 260.74 3.08C259.21 3.08 257.70 4.17 257.70 5.77ZM281.68 10.43C281.68 11.79 282.67 12.78 284.23 12.78C285.43 12.78 286.45 11.72 286.89 11.24C287.00 11.12 287.01 11.12 287.11 11.26C287.28 11.49 287.60 12.00 287.77 12.61C287.81 12.74 287.85 12.78 288.02 12.78C288.23 12.78 288.74 12.66 289.67 12.64C289.88 12.64 289.90 12.63 289.90 12.39C289.90 12.19 289.90 12.18 289.77 12.18C288.99 12.18 288.95 12.08 288.78 11.80C288.54 11.37 288.18 10.79 287.87 10.42C287.78 10.30 287.74 10.25 287.74 10.22C287.78 10.08 288.81 8.64 289.09 8.23C289.20 8.06 289.27 7.99 289.34 7.99L289.81 7.99C290.01 7.99 290.05 7.98 290.05 7.78C290.05 7.55 290.02 7.49 289.87 7.49C289.73 7.49 289.21 7.53 288.83 7.53C288.12 7.53 287.50 7.49 287.28 7.49C287.15 7.49 287.10 7.53 287.10 7.74C287.10 7.97 287.10 7.99 287.28 7.99L288.16 7.99C288.40 7.99 288.39 8.01 288.39 8.02C288.39 8.30 287.83 9.18 287.53 9.72C287.43 9.90 287.45 9.91 287.28 9.73C286.55 8.95 285.95 8.29 285.10 7.57C284.91 7.42 284.90 7.42 285.11 7.28C285.64 6.92 286.87 5.99 286.87 5.01C286.87 4.03 285.94 3.57 284.93 3.57C283.68 3.57 282.60 4.52 282.60 5.80C282.60 6.45 283.09 7.10 283.40 7.45C283.51 7.57 283.60 7.63 283.60 7.66C283.60 7.69 283.54 7.73 283.43 7.81C282.91 8.18 281.68 9.16 281.68 10.43ZM282.63 9.84C282.63 9.00 283.22 8.48 283.64 8.18C283.82 8.05 283.92 7.98 283.96 7.98C284.02 7.98 284.07 8.04 284.20 8.13C285.00 8.79 286.12 9.90 286.64 10.63C286.69 10.72 286.73 10.77 286.73 10.79C286.73 10.82 286.71 10.85 286.66 10.91C286.38 11.19 285.68 11.83 284.68 11.83C283.64 11.83 282.63 10.93 282.63 9.84ZM283.60 5.35C283.60 4.69 283.96 4.07 284.76 4.07C285.40 4.07 285.84 4.63 285.84 5.24C285.84 6.03 285.25 6.61 284.86 6.90C284.72 7.00 284.65 7.06 284.58 7.06C284.52 7.06 284.44 6.97 284.30 6.82C284.00 6.47 283.60 5.87 283.60 5.35ZM307.26 3.51C307.26 3.75 307.36 3.77 307.52 3.77L307.96 3.77C308.04 3.77 310.83 10.99 310.87 11.07C311.36 12.18 311.46 12.99 311.67 12.99C311.93 12.99 311.99 12.67 312.27 12.26C312.42 12.04 312.51 12.01 312.66 11.66L315.90 4.06C316.01 3.81 315.99 3.77 316.36 3.77C316.58 3.77 316.65 3.75 316.65 3.56C316.65 3.32 316.61 3.26 316.41 3.26C316.27 3.26 315.74 3.30 315.32 3.30C314.90 3.30 314.08 3.26 313.85 3.26C313.66 3.26 313.60 3.29 313.60 3.51C313.60 3.75 313.73 3.77 313.89 3.77L314.89 3.77C314.96 3.77 314.97 3.81 314.97 3.95C314.97 4.63 313.29 8.72 312.56 10.63C312.42 10.99 312.34 11.17 312.30 11.17C312.26 11.17 312.16 10.98 312.02 10.60C311.44 9.10 310.31 6.01 309.79 4.49C309.71 4.27 309.62 3.93 309.62 3.79L309.62 3.77L310.60 3.77C310.83 3.77 310.90 3.75 310.90 3.56C310.90 3.32 310.86 3.26 310.66 3.26C310.34 3.26 309.26 3.30 308.84 3.30C308.42 3.30 307.71 3.26 307.52 3.26C307.34 3.26 307.26 3.28 307.26 3.51ZM324.13 12.39C324.13 12.63 324.17 12.68 324.37 12.68C324.69 12.68 325.44 12.64 326.16 12.64C326.82 12.64 327.61 12.68 327.84 12.68C328.01 12.68 328.03 12.61 328.03 12.40C328.03 12.24 328.01 12.18 327.84 12.18L326.87 12.18C326.77 12.18 326.75 9.55 326.75 7.76L326.75 5.87C326.75 5.14 326.77 3.70 326.87 3.70L327.78 3.70C328.01 3.70 328.03 3.68 328.03 3.49C328.03 3.25 328.01 3.19 327.84 3.19C327.52 3.19 326.84 3.23 326.19 3.23C325.37 3.23 324.66 3.19 324.44 3.19C324.25 3.19 324.18 3.21 324.18 3.44C324.18 3.68 324.27 3.70 324.44 3.70L325.36 3.70C325.40 3.70 325.47 4.79 325.47 5.71L325.47 7.08C325.47 8.92 325.46 12.18 325.35 12.18L324.42 12.18C324.20 12.18 324.13 12.19 324.13 12.39ZM336.14 5.77C336.14 9.07 341.12 8.20 341.12 10.65C341.12 11.59 340.28 12.31 339.30 12.31C338.48 12.31 336.88 11.83 336.85 11.47L336.77 10.15C336.76 9.97 336.69 9.91 336.50 9.91L336.43 9.91C336.22 9.91 336.22 10.00 336.22 10.12C336.22 10.32 336.34 11.66 336.36 12.17C336.38 12.38 337.64 12.85 339.18 12.85C340.75 12.85 342.36 11.87 342.36 10.11C342.36 6.79 337.39 7.87 337.39 5.32C337.39 4.31 338.17 3.56 339.21 3.56C340.23 3.56 341.32 4.58 341.32 4.89C341.32 5.01 341.28 5.73 341.28 5.78C341.28 5.92 341.32 5.99 341.59 5.99C341.82 5.99 341.84 5.94 341.84 5.75C341.84 5.04 341.92 3.68 341.92 3.53C341.92 3.30 341.88 3.29 341.61 3.29C341.39 3.29 341.38 3.32 341.36 3.53C341.36 3.61 341.35 3.78 341.31 3.78C341.25 3.78 341.17 3.74 341.10 3.68C340.30 3.14 339.68 3.08 339.18 3.08C337.65 3.08 336.14 4.17 336.14 5.77ZM350.32 3.51C350.32 3.75 350.41 3.77 350.57 3.77L351.11 3.77C351.16 3.77 351.16 4.12 351.16 4.55C351.16 5.66 351.15 8.96 351.15 9.42C351.15 11.13 351.40 12.80 354.26 12.80C355.33 12.80 356.50 12.38 357.15 12.00C357.41 11.86 357.70 11.72 357.78 11.72C358.05 11.72 358.32 12.74 358.65 12.74C358.97 12.74 358.99 12.35 358.99 12.25C358.99 11.96 359.04 10.08 359.09 8.16C359.14 6.12 359.13 3.77 359.24 3.77L359.56 3.77C359.79 3.77 359.86 3.75 359.86 3.56C359.86 3.32 359.81 3.26 359.62 3.26C359.48 3.26 358.95 3.30 358.53 3.30C358.11 3.30 357.31 3.26 357.08 3.26C356.90 3.26 356.80 3.28 356.80 3.51C356.80 3.75 356.92 3.77 357.08 3.77L357.78 3.77C357.85 3.77 357.87 4.30 357.87 4.87L357.87 9.14C357.87 11.19 357.87 11.12 357.53 11.34C357.14 11.61 356.33 12.08 355.15 12.08C353.18 12.08 352.38 11.17 352.38 9.41C352.38 8.82 352.45 3.77 352.56 3.77L353.47 3.77C353.70 3.77 353.74 3.75 353.74 3.56C353.74 3.32 353.72 3.26 353.53 3.26C353.21 3.26 352.32 3.30 351.90 3.30C351.48 3.30 350.80 3.26 350.57 3.26C350.39 3.26 350.32 3.28 350.32 3.51ZM367.33 12.39C367.33 12.63 367.33 12.68 367.53 12.68C367.70 12.68 368.02 12.64 368.59 12.64C369.21 12.64 369.75 12.68 369.91 12.68C370.08 12.68 370.08 12.61 370.08 12.40C370.08 12.24 370.08 12.18 369.91 12.18L368.83 12.18C368.83 12.18 368.82 12.18 368.82 12.17C368.83 11.87 369.60 9.90 369.95 9.02C370.02 8.83 370.03 8.79 370.24 8.79L373.07 8.79C373.21 8.79 373.21 8.81 373.28 9.03C373.55 9.77 374.26 11.89 374.26 12.17C374.26 12.18 374.25 12.18 374.25 12.18L373.48 12.18C373.25 12.18 373.24 12.19 373.24 12.39C373.24 12.63 373.25 12.68 373.42 12.68C373.74 12.68 374.61 12.64 375.03 12.64C375.45 12.64 376.12 12.68 376.33 12.68C376.47 12.68 376.49 12.61 376.49 12.40C376.49 12.24 376.47 12.18 376.33 12.18L375.84 12.18C375.75 12.18 374.72 9.34 374.16 7.78L372.48 3.07C372.47 3.00 372.40 2.94 372.32 2.94C372.19 2.94 372.09 3.16 372.01 3.35C371.85 3.71 371.62 3.84 371.50 4.13L370.02 7.57C369.84 8.01 368.13 12.18 368.00 12.18L367.58 12.18C367.36 12.18 367.33 12.19 367.33 12.39ZM370.23 8.33C370.23 8.30 370.26 8.23 370.30 8.13L371.67 4.77C371.71 4.66 371.74 4.61 371.77 4.61C371.78 4.61 371.80 4.63 371.84 4.77L373.00 8.18C373.03 8.25 373.04 8.29 373.04 8.32C373.04 8.36 373.02 8.37 372.92 8.37L370.41 8.37C370.23 8.37 370.23 8.34 370.23 8.33ZM384.24 12.39C384.24 12.63 384.27 12.68 384.47 12.68C384.79 12.68 385.76 12.64 386.18 12.64C386.60 12.64 390.95 12.68 391.27 12.68C391.54 12.68 391.61 12.66 391.62 12.49C391.68 12.08 391.92 10.72 391.92 10.60C391.92 10.47 391.76 10.44 391.59 10.43C391.50 10.42 391.41 10.46 391.40 10.56L391.23 11.76C391.19 12.05 391.17 12.03 390.95 12.04C390.80 12.05 388.29 12.12 386.86 12.12C386.82 12.12 386.78 11.38 386.78 10.54L386.78 6.66C386.78 5.40 386.79 3.70 386.89 3.70L387.87 3.70C388.11 3.70 388.14 3.63 388.14 3.44C388.14 3.23 388.12 3.19 387.88 3.19C387.56 3.19 386.62 3.23 386.20 3.23C385.78 3.23 384.85 3.19 384.62 3.19C384.40 3.19 384.34 3.22 384.34 3.44C384.34 3.65 384.38 3.70 384.58 3.70L385.41 3.70C385.45 3.70 385.48 4.23 385.48 4.90L385.48 8.13C385.48 10.07 385.45 12.18 385.36 12.18L384.52 12.18C384.30 12.18 384.24 12.21 384.24 12.39ZM409.40 7.91C409.40 11.31 411.77 12.87 414.36 12.87C416.14 12.87 417.91 11.90 417.96 11.59C418.12 10.29 418.18 9.70 418.18 9.66C418.18 9.56 418.14 9.52 417.97 9.51C417.91 9.51 417.86 9.49 417.82 9.49C417.70 9.49 417.65 9.53 417.62 9.70L417.44 11.33C417.42 11.45 416.32 12.24 414.75 12.24C412.62 12.24 410.91 10.29 410.91 7.94C410.91 5.42 412.34 3.54 414.34 3.54C416.19 3.54 417.54 5.01 417.54 5.17C417.54 5.29 417.48 6.40 417.48 6.45C417.48 6.59 417.52 6.64 417.79 6.64C417.98 6.64 418.05 6.62 418.05 6.44C418.05 5.73 418.11 3.92 418.11 3.67C418.11 3.47 418.00 3.44 417.79 3.44C417.56 3.44 417.54 3.50 417.54 3.67L417.54 4.05C417.54 4.16 417.49 4.16 417.37 4.06C417.09 3.86 416.11 3.04 414.44 3.04C411.60 3.04 409.40 4.96 409.40 7.91ZM426.64 8.15C426.64 11.17 428.97 12.80 431.23 12.80C434.01 12.80 435.99 10.89 435.99 8.06C435.99 5.33 434.24 3.11 431.44 3.11C428.83 3.11 426.64 5.10 426.64 8.15ZM428.04 7.77C428.04 5.64 429.32 3.58 431.30 3.58C433.54 3.58 434.62 5.81 434.62 7.94C434.62 10.08 433.51 12.32 431.24 12.32C429.25 12.32 428.04 10.28 428.04 7.77ZM444.02 12.39C444.02 12.63 444.05 12.68 444.25 12.68C444.49 12.68 444.99 12.64 445.41 12.64C445.83 12.64 446.32 12.68 446.64 12.68C446.81 12.68 446.84 12.61 446.84 12.40C446.84 12.24 446.81 12.18 446.64 12.18L445.68 12.18C445.62 12.18 445.61 11.54 445.61 10.79C445.61 8.96 445.65 6.13 445.72 4.28C445.75 3.88 445.77 3.91 445.91 4.27L449.18 12.32C449.27 12.54 449.34 12.74 449.46 12.74C449.55 12.74 449.62 12.63 449.71 12.45C450.04 11.79 450.23 11.75 450.49 11.09L453.08 4.47C453.21 4.16 453.25 4.02 453.26 4.47C453.29 5.66 453.33 8.47 453.33 9.74C453.33 10.99 453.29 12.18 453.24 12.18L452.61 12.18C452.38 12.18 452.31 12.19 452.31 12.39C452.31 12.63 452.34 12.68 452.54 12.68C452.73 12.68 453.43 12.64 454.03 12.64C454.45 12.64 455.21 12.68 455.53 12.68C455.70 12.68 455.73 12.61 455.73 12.40C455.73 12.22 455.67 12.18 455.50 12.18L454.78 12.18C454.66 12.18 454.57 8.44 454.57 6.03L454.57 4.77C454.57 4.17 454.59 3.77 454.64 3.70L455.29 3.70C455.52 3.70 455.56 3.68 455.56 3.49C455.56 3.25 455.55 3.19 455.35 3.19C455.03 3.19 454.34 3.23 453.92 3.23L453.25 3.23C453.03 3.23 453.00 3.29 452.89 3.58L450.14 10.72C450.06 10.95 450.03 11.02 449.92 10.74L446.98 3.40C446.91 3.22 446.85 3.19 446.71 3.19C446.63 3.19 446.14 3.23 445.83 3.23C445.33 3.23 444.47 3.19 444.28 3.19C444.14 3.19 444.14 3.26 444.14 3.47C444.14 3.64 444.14 3.70 444.28 3.70L444.98 3.70C445.24 3.70 445.24 3.72 445.24 3.84C445.24 4.82 445.03 9.94 444.99 10.79C444.95 11.55 444.95 12.18 444.89 12.18L444.32 12.18C444.09 12.18 444.02 12.19 444.02 12.39ZM463.62 3.51C463.62 3.75 463.67 3.79 463.88 3.79L464.80 3.77C464.86 3.77 464.86 4.47 464.86 5.24L464.86 5.96C464.86 7.70 464.84 12.18 464.73 12.18L464.06 12.18C463.83 12.18 463.76 12.19 463.76 12.39C463.76 12.63 463.78 12.68 463.97 12.68C464.10 12.68 465.08 12.64 465.50 12.64C465.92 12.64 466.79 12.68 467.11 12.68C467.28 12.68 467.31 12.61 467.31 12.40C467.31 12.24 467.28 12.18 467.11 12.18L466.12 12.18C466.07 12.18 466.06 10.60 466.06 9.58L466.06 8.65C466.06 8.57 466.06 8.54 466.16 8.54C466.55 8.54 466.87 8.58 467.38 8.58C469.36 8.58 470.76 7.83 470.76 6.01C470.76 4.09 469.28 3.22 467.36 3.22C467.04 3.22 465.95 3.29 465.53 3.29C465.29 3.29 464.10 3.26 463.88 3.26C463.69 3.26 463.62 3.28 463.62 3.51ZM466.07 8.05L466.07 4.40C466.07 4.05 466.09 3.70 466.13 3.68C466.26 3.67 466.42 3.67 466.56 3.67C468.22 3.67 469.48 4.47 469.48 5.80C469.48 7.57 468.15 8.19 466.56 8.19C466.31 8.19 466.07 8.16 466.07 8.05ZM478.52 3.51C478.52 3.75 478.60 3.77 478.77 3.77L479.30 3.77C479.36 3.77 479.36 4.12 479.36 4.55C479.36 5.66 479.35 8.96 479.35 9.42C479.35 11.13 479.60 12.80 482.45 12.80C483.53 12.80 484.69 12.38 485.35 12.00C485.60 11.86 485.90 11.72 485.98 11.72C486.25 11.72 486.51 12.74 486.85 12.74C487.17 12.74 487.19 12.35 487.19 12.25C487.19 11.96 487.24 10.08 487.28 8.16C487.34 6.12 487.33 3.77 487.44 3.77L487.76 3.77C487.98 3.77 488.05 3.75 488.05 3.56C488.05 3.32 488.01 3.26 487.82 3.26C487.68 3.26 487.14 3.30 486.72 3.30C486.30 3.30 485.51 3.26 485.28 3.26C485.10 3.26 485.00 3.28 485.00 3.51C485.00 3.75 485.11 3.77 485.28 3.77L485.98 3.77C486.05 3.77 486.07 4.30 486.07 4.87L486.07 9.14C486.07 11.19 486.07 11.12 485.73 11.34C485.34 11.61 484.53 12.08 483.35 12.08C481.38 12.08 480.58 11.17 480.58 9.41C480.58 8.82 480.65 3.77 480.76 3.77L481.67 3.77C481.89 3.77 481.94 3.75 481.94 3.56C481.94 3.32 481.92 3.26 481.73 3.26C481.40 3.26 480.52 3.30 480.10 3.30C479.68 3.30 479.00 3.26 478.77 3.26C478.59 3.26 478.52 3.28 478.52 3.51ZM495.82 5.01C495.82 5.17 496.01 5.17 496.13 5.17C496.29 5.17 496.33 5.15 496.34 4.97L496.45 3.89C496.47 3.81 497.01 3.75 497.77 3.75L499.76 3.75C499.81 3.75 499.84 4.35 499.84 4.97C499.84 6.43 499.79 12.18 499.66 12.18L498.79 12.18C498.57 12.18 498.53 12.19 498.53 12.39C498.53 12.63 498.54 12.68 498.74 12.68C499.06 12.68 500.04 12.64 500.46 12.64C500.88 12.64 501.82 12.68 502.14 12.68C502.31 12.68 502.33 12.61 502.33 12.40C502.33 12.24 502.31 12.18 502.14 12.18L501.14 12.18C501.12 12.18 501.12 11.76 501.12 11.31C501.12 9.56 501.20 5.96 501.20 5.92C501.21 5.18 501.21 3.75 501.31 3.75L502.92 3.75C503.64 3.75 504.46 3.78 504.46 3.85C504.46 3.99 504.42 4.90 504.42 4.97C504.42 5.12 504.49 5.17 504.67 5.17C504.87 5.17 504.94 5.17 504.94 5.03C504.94 3.93 504.99 3.40 504.99 3.14C504.99 2.94 504.91 2.94 504.71 2.94C504.56 2.94 504.50 2.98 504.49 3.16C504.49 3.23 503.85 3.28 503.01 3.28L498.01 3.28C497.35 3.28 496.54 3.28 496.54 3.21L496.54 3.07C496.54 2.94 496.41 2.94 496.31 2.94C496.09 2.94 496.06 3.00 496.05 3.19C495.99 3.89 495.82 4.97 495.82 5.01ZM512.61 12.39C512.61 12.63 512.65 12.68 512.85 12.68C513.17 12.68 513.93 12.64 514.64 12.64C515.30 12.64 516.10 12.68 516.32 12.68C516.49 12.68 516.52 12.61 516.52 12.40C516.52 12.24 516.49 12.18 516.32 12.18L515.35 12.18C515.26 12.18 515.23 9.55 515.23 7.76L515.23 5.87C515.23 5.14 515.26 3.70 515.35 3.70L516.26 3.70C516.49 3.70 516.52 3.68 516.52 3.49C516.52 3.25 516.49 3.19 516.32 3.19C516.00 3.19 515.33 3.23 514.67 3.23C513.86 3.23 513.14 3.19 512.92 3.19C512.74 3.19 512.67 3.21 512.67 3.44C512.67 3.68 512.75 3.70 512.92 3.70L513.84 3.70C513.88 3.70 513.95 4.79 513.95 5.71L513.95 7.08C513.95 8.92 513.94 12.18 513.83 12.18L512.90 12.18C512.68 12.18 512.61 12.19 512.61 12.39ZM524.41 12.39C524.41 12.63 524.43 12.68 524.62 12.68C524.80 12.68 525.18 12.64 525.80 12.64C526.43 12.64 526.99 12.68 527.31 12.68C527.48 12.68 527.48 12.61 527.48 12.40C527.48 12.24 527.48 12.18 527.31 12.18L526.11 12.18C526.06 12.18 526.05 11.54 526.05 10.79C526.05 9.46 526.06 7.48 526.06 5.99C526.06 5.25 526.06 4.84 526.08 4.28C526.08 4.02 526.15 4.14 526.27 4.28L533.16 12.66C533.25 12.75 533.33 12.89 533.44 12.89C533.55 12.89 533.62 12.77 533.62 12.54C533.62 12.39 533.79 6.65 533.81 4.48C533.81 4.06 533.83 3.70 533.86 3.70L534.49 3.70C534.72 3.70 534.77 3.68 534.77 3.49C534.77 3.25 534.77 3.19 534.58 3.19C534.38 3.19 533.95 3.23 533.39 3.23C532.77 3.23 531.97 3.19 531.87 3.19C531.71 3.19 531.71 3.26 531.71 3.47C531.71 3.64 531.71 3.70 531.87 3.70L533.18 3.70C533.19 3.70 533.19 4.33 533.19 4.44C533.19 5.85 533.22 8.33 533.22 9.70L533.22 10.29C533.22 10.57 533.20 10.65 532.98 10.37L527.30 3.39C527.18 3.25 527.16 3.19 526.99 3.19C526.90 3.19 526.53 3.23 526.22 3.23C525.92 3.23 524.85 3.19 524.65 3.19C524.48 3.19 524.45 3.26 524.45 3.47C524.45 3.64 524.48 3.70 524.65 3.70L525.56 3.70C525.56 4.17 525.52 8.53 525.45 10.79C525.42 11.69 525.43 12.18 525.32 12.18L524.68 12.18C524.45 12.18 524.41 12.19 524.41 12.39ZM542.88 7.91C542.88 11.40 545.24 12.89 547.83 12.89C549.72 12.89 551.73 11.89 551.73 11.58C551.73 11.12 551.74 10.68 551.74 10.33C551.74 9.81 551.75 9.56 551.88 9.56L552.31 9.56C552.45 9.56 552.47 9.39 552.47 9.30C552.47 9.18 552.45 9.06 552.31 9.06C552.09 9.06 551.73 9.10 551.05 9.10C550.61 9.10 549.86 9.07 549.18 9.06C549.04 9.06 549.04 9.24 549.04 9.35C549.04 9.45 549.07 9.56 549.19 9.56L550.41 9.56C550.45 9.56 550.51 9.87 550.51 10.33C550.51 10.82 550.49 11.41 550.47 11.65C550.45 11.76 549.81 12.39 548.23 12.39C545.99 12.39 544.39 10.29 544.39 7.94C544.39 5.42 545.94 3.54 547.95 3.54C549.84 3.54 551.01 4.87 551.01 5.03C551.01 5.15 550.96 6.12 550.96 6.17C550.96 6.31 551.00 6.36 551.26 6.36C551.46 6.36 551.53 6.33 551.53 6.15C551.53 5.43 551.57 3.75 551.57 3.56C551.57 3.36 551.47 3.33 551.26 3.33C551.04 3.33 551.01 3.39 551.01 3.56L551.01 3.91C551.01 3.99 550.97 4.02 550.84 3.92C550.56 3.72 549.57 3.08 548.00 3.08C545.16 3.08 542.88 4.79 542.88 7.91Z"></path></g></svg>