<svg data-v-423bf9ae="" xmlns="http://www.w3.org/2000/svg" viewBox="0 0 217.99773671316643 60" class="font"><!----><!----><!----><g data-v-423bf9ae="" id="68ba06b9-0f32-4da2-8eda-2cd5063f79fa" fill="white" transform="matrix(6.7491560948100275,0,0,6.7491560948100275,-2.227222832053272,-30.303708844100626)"><path d="M1.80 8.67L1.80 8.67L1.80 8.67Q1.80 9.56 2.06 10.28L2.06 10.28L2.06 10.28Q2.32 11.01 2.75 11.46L2.75 11.46L2.75 11.46Q3.19 11.92 3.74 12.17L3.74 12.17L3.74 12.17Q4.29 12.41 4.91 12.41L4.91 12.41L4.91 12.41Q5.56 12.41 6.19 12.12L6.19 12.12L6.19 12.12Q6.82 11.83 7.29 11.39L7.29 11.39L7.54 11.91L7.54 11.91Q7.08 12.47 6.22 12.91L6.22 12.91L6.22 12.91Q5.37 13.34 4.38 13.34L4.38 13.34L4.38 13.34Q3.58 13.34 2.86 13.06L2.86 13.06L2.86 13.06Q2.14 12.78 1.57 12.27L1.57 12.27L1.57 12.27Q1.00 11.76 0.67 10.94L0.67 10.94L0.67 10.94Q0.33 10.13 0.33 9.14L0.33 9.14L0.33 9.14Q0.33 8.70 0.41 8.25L0.41 8.25L0.41 8.25Q0.49 7.80 0.67 7.34L0.67 7.34L0.67 7.34Q0.84 6.88 1.09 6.46L1.09 6.46L1.09 6.46Q1.33 6.05 1.70 5.69L1.70 5.69L1.70 5.69Q2.06 5.33 2.50 5.06L2.50 5.06L2.50 5.06Q2.93 4.79 3.51 4.64L3.51 4.64L3.51 4.64Q4.09 4.49 4.74 4.49L4.74 4.49L4.74 4.49Q6.30 4.49 7.21 5.17L7.21 5.17L7 7.45L6.40 7.36L6.12 5.86L6.12 5.86Q5.56 5.15 4.35 5.14L4.35 5.14L4.35 5.14Q3.25 5.14 2.53 6.10L2.53 6.10L2.53 6.10Q1.80 7.05 1.80 8.67ZM15.31 5.22L15.31 5.22L15.15 7.42L14.55 7.33L14.30 6.02L14.30 6.02Q14.01 5.72 13.41 5.48L13.41 5.48L13.41 5.48Q12.81 5.24 12.09 5.24L12.09 5.24L12.09 5.24Q11.67 5.24 11.29 5.36L11.29 5.36L11.29 5.36Q10.91 5.48 10.56 5.75L10.56 5.75L10.56 5.75Q10.22 6.03 9.96 6.43L9.96 6.43L9.96 6.43Q9.71 6.82 9.56 7.42L9.56 7.42L9.56 7.42Q9.41 8.02 9.41 8.75L9.41 8.75L9.41 8.75Q9.41 9.52 9.64 10.22L9.64 10.22L9.64 10.22Q9.86 10.91 10.28 11.45L10.28 11.45L10.28 11.45Q10.70 12.00 11.35 12.32L11.35 12.32L11.35 12.32Q12.00 12.65 12.79 12.65L12.79 12.65L12.79 12.65Q13.48 12.65 13.97 12.36L13.97 12.36L13.97 10.21L12.36 9.95L12.43 9.38L16.24 9.38L16.16 9.89L15.31 10.17L15.31 12.63L15.31 12.63Q14.64 13.03 13.85 13.21L13.85 13.21L13.85 13.21Q13.06 13.38 12.02 13.38L12.02 13.38L12.02 13.38Q11.21 13.38 10.54 13.18L10.54 13.18L10.54 13.18Q9.86 12.97 9.39 12.59L9.39 12.59L9.39 12.59Q8.91 12.22 8.58 11.69L8.58 11.69L8.58 11.69Q8.24 11.17 8.09 10.55L8.09 10.55L8.09 10.55Q7.93 9.93 7.93 9.22L7.93 9.22L7.93 9.22Q7.93 8.16 8.31 7.26L8.31 7.26L8.31 7.26Q8.70 6.36 9.33 5.78L9.33 5.78L9.33 5.78Q9.96 5.20 10.76 4.88L10.76 4.88L10.76 4.88Q11.57 4.56 12.43 4.56L12.43 4.56L12.43 4.56Q14.21 4.56 15.31 5.22ZM21.23 13.14L20.19 13.34L17.32 5.48L16.33 5.19L16.40 4.67L20.07 4.67L20.00 5.19L18.85 5.46L20.98 11.46L23.17 5.48L21.92 5.19L21.97 4.67L25.09 4.67L25.03 5.19L24.14 5.46L21.23 13.14ZM26.90 8.67L26.90 8.67L26.90 8.67Q26.90 9.56 27.16 10.28L27.16 10.28L27.16 10.28Q27.41 11.01 27.85 11.46L27.85 11.46L27.85 11.46Q28.28 11.92 28.83 12.17L28.83 12.17L28.83 12.17Q29.39 12.41 30.00 12.41L30.00 12.41L30.00 12.41Q30.65 12.41 31.28 12.12L31.28 12.12L31.28 12.12Q31.91 11.83 32.39 11.39L32.39 11.39L32.63 11.91L32.63 11.91Q32.17 12.47 31.32 12.91L31.32 12.91L31.32 12.91Q30.46 13.34 29.48 13.34L29.48 13.34L29.48 13.34Q28.68 13.34 27.96 13.06L27.96 13.06L27.96 13.06Q27.23 12.78 26.67 12.27L26.67 12.27L26.67 12.27Q26.10 11.76 25.76 10.94L25.76 10.94L25.76 10.94Q25.43 10.13 25.43 9.14L25.43 9.14L25.43 9.14Q25.43 8.70 25.51 8.25L25.51 8.25L25.51 8.25Q25.59 7.80 25.76 7.34L25.76 7.34L25.76 7.34Q25.94 6.88 26.18 6.46L26.18 6.46L26.18 6.46Q26.43 6.05 26.79 5.69L26.79 5.69L26.79 5.69Q27.15 5.33 27.59 5.06L27.59 5.06L27.59 5.06Q28.03 4.79 28.60 4.64L28.60 4.64L28.60 4.64Q29.18 4.49 29.83 4.49L29.83 4.49L29.83 4.49Q31.40 4.49 32.31 5.17L32.31 5.17L32.09 7.45L31.49 7.36L31.21 5.86L31.21 5.86Q30.66 5.15 29.44 5.14L29.44 5.14L29.44 5.14Q28.35 5.14 27.62 6.10L27.62 6.10L27.62 6.10Q26.90 7.05 26.90 8.67Z"></path></g><!----><!----></svg>